<svg xmlns="http://www.w3.org/2000/svg" viewBox="0 0 500 500"><g id="freepik--background-simple--inject-2"><path d="M467.6,251.91c-4.93,41.8-24,90.41-62.14,112.73-57.59,33.75-52.77,85.64-165.19,108.2a231.26,231.26,0,0,1-49.84,4.71,194.66,194.66,0,0,1-24.47-2C94.51,465.12,46.43,415.46,28.79,355.5,5.58,276.66,51.93,225,82.65,193.94s53.23-128,163.57-151A223.75,223.75,0,0,1,297.45,38c39.26,1,82.08,13.86,111.71,40.76q3.33,3,6.5,6.28C456.84,127.33,474.34,194.92,467.6,251.91Z" style="fill:#FAE92D"></path><path d="M467.6,251.91c-4.93,41.8-24,90.41-62.14,112.73-57.59,33.75-52.77,85.64-165.19,108.2a231.26,231.26,0,0,1-49.84,4.71,194.66,194.66,0,0,1-24.47-2C94.51,465.12,46.43,415.46,28.79,355.5,5.58,276.66,51.93,225,82.65,193.94s53.23-128,163.57-151A223.75,223.75,0,0,1,297.45,38c39.26,1,82.08,13.86,111.71,40.76q3.33,3,6.5,6.28C456.84,127.33,474.34,194.92,467.6,251.91Z" style="fill:#fff;opacity:0.7000000000000001"></path></g><g id="freepik--Floor--inject-2"><line x1="24.72" y1="464.1" x2="476.1" y2="464.1" style="fill:none;stroke:#263238;stroke-linecap:round;stroke-linejoin:round"></line></g><g id="freepik--Clouds--inject-2"><path d="M349.13,73.4h38.1s3.65-11-2.93-15-6.58,1.46-11.7-.74c-4.22-1.81-5-5.25-6.2-8.89-.13-.42-.27-.84-.42-1.25a16.59,16.59,0,0,0-1.58-3.25" style="fill:none;stroke:#b2b2b2;stroke-linecap:round;stroke-linejoin:round"></path><path d="M359.92,39.54c-9.54-7-25.33-4.37-25.33,10.47,0,3.65-8.78,0-12.07,4.75s.37,7.68-4,9.14-4.75-2.19-10.24-1.83-4.75,5.48-6.58,6.95-1.82.73-5.84,1.09-4.76,3.29-4.76,3.29h51.3" style="fill:none;stroke:#b2b2b2;stroke-linecap:round;stroke-linejoin:round"></path><path d="M369.73,69.4a10.74,10.74,0,0,0-2.9-10.68c-4.89-4.52-10-2-11.41,0s-1.45,5.8-3.8,6.16-1.81-4-6.88-2.9-3.08,6.16-5.43,7.24-2.35-2.89-5.61-1.63-3.08,3.62-3.08,3.62" style="fill:none;stroke:#b2b2b2;stroke-linecap:round;stroke-linejoin:round"></path><path d="M343.72,57.1a9.17,9.17,0,0,0-9.27-.8c-5.24,2.42-2.82,7.46-5.24,8.67s-3.63-.21-6.65,1.21-2.83,3.42-2.83,3.42" style="fill:none;stroke:#b2b2b2;stroke-linecap:round;stroke-linejoin:round"></path><path d="M89,141.32a5.14,5.14,0,0,0-2.91-.62c-3.15.21-2.73,3.15-3.78,4s-1,.42-3.35.63a2.86,2.86,0,0,0-2.73,1.88h55.17s1.36-4.07-.08-6.87" style="fill:none;stroke:#b2b2b2;stroke-linecap:round;stroke-linejoin:round"></path><path d="M129.74,138.6c-3.77-2.3-3.77.84-6.71-.42-2.43-1-2.88-3-3.56-5.1l-.24-.72c-3.19-8.86-18-9.47-18,1.42,0,2.1-5,0-6.92,2.73s.21,4.4-2.31,5.24" style="fill:none;stroke:#b2b2b2;stroke-linecap:round;stroke-linejoin:round"></path><path d="M121.38,144.91a6.17,6.17,0,0,0-1.66-6.13c-2.81-2.6-5.72-1.14-6.55,0s-.83,3.32-2.18,3.53-1-2.28-3.95-1.66-1.76,3.53-3.12,4.16-1.35-1.67-3.22-.94S98.94,146,98.94,146" style="fill:none;stroke:#b2b2b2;stroke-linecap:round;stroke-linejoin:round"></path><path d="M106.46,137.85a5.26,5.26,0,0,0-5.32-.46c-3,1.39-1.62,4.28-3,5s-2.08-.11-3.82.7-1.62,2-1.62,2" style="fill:none;stroke:#b2b2b2;stroke-linecap:round;stroke-linejoin:round"></path><path d="M218,45.52a5.08,5.08,0,0,0-2.9-.62c-3.15.21-2.73,3.15-3.78,4s-1.05.42-3.36.62a2.86,2.86,0,0,0-2.72,1.89h55.17s1.36-4.07-.08-6.87" style="fill:none;stroke:#b2b2b2;stroke-linecap:round;stroke-linejoin:round"></path><path d="M258.69,42.8c-3.77-2.31-3.77.84-6.71-.42-2.43-1-2.88-3-3.56-5.1l-.24-.72c-3.19-8.86-18-9.48-18,1.42,0,2.09-5,0-6.92,2.72s.21,4.41-2.31,5.25" style="fill:none;stroke:#b2b2b2;stroke-linecap:round;stroke-linejoin:round"></path><path d="M250.33,49.11A6.16,6.16,0,0,0,248.66,43c-2.8-2.6-5.71-1.15-6.54,0s-.83,3.32-2.18,3.53-1-2.29-3.95-1.66-1.77,3.53-3.12,4.15-1.35-1.66-3.22-.93-1.77,2.08-1.77,2.08" style="fill:none;stroke:#b2b2b2;stroke-linecap:round;stroke-linejoin:round"></path><path d="M235.4,42.05a5.26,5.26,0,0,0-5.32-.46c-3,1.38-1.62,4.28-3,5s-2.09-.12-3.82.69-1.62,2-1.62,2" style="fill:none;stroke:#b2b2b2;stroke-linecap:round;stroke-linejoin:round"></path></g><g id="freepik--Building--inject-2"><rect x="217.3" y="97.09" width="217.79" height="367.01" style="fill:#adadad;stroke:#adadad;stroke-linecap:round;stroke-linejoin:round"></rect><rect x="309.69" y="97.09" width="125.4" height="367.01" style="fill:#fff;stroke:#adadad;stroke-linecap:round;stroke-linejoin:round"></rect><rect x="324.24" y="97.09" width="96.29" height="367.01" style="fill:#fff;stroke:#adadad;stroke-linecap:round;stroke-linejoin:round"></rect><rect x="309.69" y="97.09" width="125.4" height="25.14" style="fill:#adadad;stroke:#adadad;stroke-linecap:round;stroke-linejoin:round"></rect><rect x="341.93" y="419" width="60.92" height="45.11" style="fill:#fff;stroke:#adadad;stroke-linecap:round;stroke-linejoin:round"></rect><rect x="372.39" y="419" width="30.46" height="45.11" style="fill:#fff;stroke:#adadad;stroke-linecap:round;stroke-linejoin:round"></rect><rect x="231.77" y="138.27" width="27.65" height="25.11" style="fill:#fff;stroke:#adadad;stroke-linecap:round;stroke-linejoin:round"></rect><rect x="231.77" y="131.04" width="27.65" height="10.92" style="fill:#fff;stroke:#adadad;stroke-linecap:round;stroke-linejoin:round"></rect><rect x="271.29" y="138.27" width="27.65" height="25.11" style="fill:#fff;stroke:#adadad;stroke-linecap:round;stroke-linejoin:round"></rect><rect x="271.29" y="131.04" width="27.65" height="10.92" style="fill:#fff;stroke:#adadad;stroke-linecap:round;stroke-linejoin:round"></rect><rect x="231.77" y="186.47" width="27.65" height="25.11" style="fill:#fff;stroke:#adadad;stroke-linecap:round;stroke-linejoin:round"></rect><rect x="231.77" y="179.24" width="27.65" height="10.92" style="fill:#fff;stroke:#adadad;stroke-linecap:round;stroke-linejoin:round"></rect><rect x="271.29" y="186.47" width="27.65" height="25.11" style="fill:#fff;stroke:#adadad;stroke-linecap:round;stroke-linejoin:round"></rect><rect x="271.29" y="179.24" width="27.65" height="10.92" style="fill:#fff;stroke:#adadad;stroke-linecap:round;stroke-linejoin:round"></rect><rect x="231.77" y="234.67" width="27.65" height="25.11" style="fill:#fff;stroke:#adadad;stroke-linecap:round;stroke-linejoin:round"></rect><rect x="231.77" y="227.44" width="27.65" height="10.92" style="fill:#fff;stroke:#adadad;stroke-linecap:round;stroke-linejoin:round"></rect><rect x="271.29" y="234.67" width="27.65" height="25.11" style="fill:#fff;stroke:#adadad;stroke-linecap:round;stroke-linejoin:round"></rect><rect x="271.29" y="227.44" width="27.65" height="10.92" style="fill:#fff;stroke:#adadad;stroke-linecap:round;stroke-linejoin:round"></rect><rect x="231.77" y="282.87" width="27.65" height="25.11" style="fill:#fff;stroke:#adadad;stroke-linecap:round;stroke-linejoin:round"></rect><rect x="231.77" y="275.63" width="27.65" height="10.92" style="fill:#fff;stroke:#adadad;stroke-linecap:round;stroke-linejoin:round"></rect><rect x="271.29" y="282.87" width="27.65" height="25.11" style="fill:#fff;stroke:#adadad;stroke-linecap:round;stroke-linejoin:round"></rect><rect x="271.29" y="275.63" width="27.65" height="10.92" style="fill:#fff;stroke:#adadad;stroke-linecap:round;stroke-linejoin:round"></rect><rect x="231.77" y="331.07" width="27.65" height="25.11" style="fill:#fff;stroke:#adadad;stroke-linecap:round;stroke-linejoin:round"></rect><rect x="231.77" y="323.83" width="27.65" height="10.92" style="fill:#fff;stroke:#adadad;stroke-linecap:round;stroke-linejoin:round"></rect><rect x="271.29" y="331.07" width="27.65" height="25.11" style="fill:#fff;stroke:#adadad;stroke-linecap:round;stroke-linejoin:round"></rect><rect x="271.29" y="323.83" width="27.65" height="10.92" style="fill:#fff;stroke:#adadad;stroke-linecap:round;stroke-linejoin:round"></rect><rect x="231.77" y="379.26" width="27.65" height="25.11" style="fill:#fff;stroke:#adadad;stroke-linecap:round;stroke-linejoin:round"></rect><rect x="231.77" y="372.03" width="27.65" height="10.92" style="fill:#fff;stroke:#adadad;stroke-linecap:round;stroke-linejoin:round"></rect><rect x="271.29" y="379.26" width="27.65" height="25.11" style="fill:#fff;stroke:#adadad;stroke-linecap:round;stroke-linejoin:round"></rect><rect x="271.29" y="372.03" width="27.65" height="10.92" style="fill:#fff;stroke:#adadad;stroke-linecap:round;stroke-linejoin:round"></rect><rect x="319.81" y="138.27" width="27.65" height="25.11" style="fill:#fff;stroke:#adadad;stroke-linecap:round;stroke-linejoin:round"></rect><rect x="319.81" y="131.04" width="27.65" height="10.92" style="fill:#fff;stroke:#adadad;stroke-linecap:round;stroke-linejoin:round"></rect><rect x="359.34" y="138.27" width="27.65" height="25.11" style="fill:#fff;stroke:#adadad;stroke-linecap:round;stroke-linejoin:round"></rect><rect x="359.34" y="131.04" width="27.65" height="10.92" style="fill:#fff;stroke:#adadad;stroke-linecap:round;stroke-linejoin:round"></rect><rect x="398.86" y="138.27" width="27.65" height="25.11" style="fill:#fff;stroke:#adadad;stroke-linecap:round;stroke-linejoin:round"></rect><rect x="398.86" y="131.04" width="27.65" height="10.92" style="fill:#fff;stroke:#adadad;stroke-linecap:round;stroke-linejoin:round"></rect><rect x="319.81" y="186.47" width="27.65" height="25.11" style="fill:#fff;stroke:#adadad;stroke-linecap:round;stroke-linejoin:round"></rect><rect x="319.81" y="179.24" width="27.65" height="10.92" style="fill:#fff;stroke:#adadad;stroke-linecap:round;stroke-linejoin:round"></rect><rect x="359.34" y="186.47" width="27.65" height="25.11" style="fill:#fff;stroke:#adadad;stroke-linecap:round;stroke-linejoin:round"></rect><rect x="359.34" y="179.24" width="27.65" height="10.92" style="fill:#fff;stroke:#adadad;stroke-linecap:round;stroke-linejoin:round"></rect><rect x="398.86" y="186.47" width="27.65" height="25.11" style="fill:#fff;stroke:#adadad;stroke-linecap:round;stroke-linejoin:round"></rect><rect x="398.86" y="179.24" width="27.65" height="10.92" style="fill:#fff;stroke:#adadad;stroke-linecap:round;stroke-linejoin:round"></rect><rect x="319.81" y="234.67" width="27.65" height="25.11" style="fill:#fff;stroke:#adadad;stroke-linecap:round;stroke-linejoin:round"></rect><rect x="319.81" y="227.44" width="27.65" height="10.92" style="fill:#fff;stroke:#adadad;stroke-linecap:round;stroke-linejoin:round"></rect><rect x="359.34" y="234.67" width="27.65" height="25.11" style="fill:#fff;stroke:#adadad;stroke-linecap:round;stroke-linejoin:round"></rect><rect x="359.34" y="227.44" width="27.65" height="10.92" style="fill:#fff;stroke:#adadad;stroke-linecap:round;stroke-linejoin:round"></rect><rect x="398.86" y="234.67" width="27.65" height="25.11" style="fill:#fff;stroke:#adadad;stroke-linecap:round;stroke-linejoin:round"></rect><rect x="398.86" y="227.44" width="27.65" height="10.92" style="fill:#fff;stroke:#adadad;stroke-linecap:round;stroke-linejoin:round"></rect><rect x="319.81" y="282.87" width="27.65" height="25.11" style="fill:#fff;stroke:#adadad;stroke-linecap:round;stroke-linejoin:round"></rect><rect x="319.81" y="275.63" width="27.65" height="10.92" style="fill:#fff;stroke:#adadad;stroke-linecap:round;stroke-linejoin:round"></rect><rect x="359.34" y="282.87" width="27.65" height="25.11" style="fill:#fff;stroke:#adadad;stroke-linecap:round;stroke-linejoin:round"></rect><rect x="359.34" y="275.63" width="27.65" height="10.92" style="fill:#fff;stroke:#adadad;stroke-linecap:round;stroke-linejoin:round"></rect><rect x="398.86" y="282.87" width="27.65" height="25.11" style="fill:#fff;stroke:#adadad;stroke-linecap:round;stroke-linejoin:round"></rect><rect x="398.86" y="275.63" width="27.65" height="10.92" style="fill:#fff;stroke:#adadad;stroke-linecap:round;stroke-linejoin:round"></rect><rect x="319.81" y="331.07" width="27.65" height="25.11" style="fill:#fff;stroke:#adadad;stroke-linecap:round;stroke-linejoin:round"></rect><rect x="319.81" y="323.83" width="27.65" height="10.92" style="fill:#fff;stroke:#adadad;stroke-linecap:round;stroke-linejoin:round"></rect><rect x="359.34" y="331.07" width="27.65" height="25.11" style="fill:#fff;stroke:#adadad;stroke-linecap:round;stroke-linejoin:round"></rect><rect x="359.34" y="323.83" width="27.65" height="10.92" style="fill:#fff;stroke:#adadad;stroke-linecap:round;stroke-linejoin:round"></rect><rect x="398.86" y="331.07" width="27.65" height="25.11" style="fill:#fff;stroke:#adadad;stroke-linecap:round;stroke-linejoin:round"></rect><rect x="398.86" y="323.83" width="27.65" height="10.92" style="fill:#fff;stroke:#adadad;stroke-linecap:round;stroke-linejoin:round"></rect><rect x="319.81" y="379.26" width="27.65" height="25.11" style="fill:#fff;stroke:#adadad;stroke-linecap:round;stroke-linejoin:round"></rect><rect x="319.81" y="372.03" width="27.65" height="10.92" style="fill:#fff;stroke:#adadad;stroke-linecap:round;stroke-linejoin:round"></rect><rect x="359.34" y="379.26" width="27.65" height="25.11" style="fill:#fff;stroke:#adadad;stroke-linecap:round;stroke-linejoin:round"></rect><rect x="359.34" y="372.03" width="27.65" height="10.92" style="fill:#fff;stroke:#adadad;stroke-linecap:round;stroke-linejoin:round"></rect><rect x="398.86" y="379.26" width="27.65" height="25.11" style="fill:#fff;stroke:#adadad;stroke-linecap:round;stroke-linejoin:round"></rect><rect x="398.86" y="372.03" width="27.65" height="10.92" style="fill:#fff;stroke:#adadad;stroke-linecap:round;stroke-linejoin:round"></rect><rect x="318.46" y="418.93" width="107.7" height="13.66" style="fill:#fff;stroke:#adadad;stroke-linecap:round;stroke-linejoin:round"></rect><rect x="318.46" y="414.98" width="107.7" height="13.66" style="fill:#fff;stroke:#adadad;stroke-linecap:round;stroke-linejoin:round"></rect><rect x="217.18" y="78.21" width="58.67" height="36.17" style="fill:#adadad;stroke:#adadad;stroke-linecap:round;stroke-linejoin:round"></rect><rect x="255.55" y="78.21" width="20.3" height="36.17" style="fill:#fff;stroke:#adadad;stroke-linecap:round;stroke-linejoin:round"></rect><rect x="400.44" y="87.05" width="24.11" height="27.33" style="fill:#fff;stroke:#adadad;stroke-linecap:round;stroke-linejoin:round"></rect><rect x="389.29" y="87.05" width="24.11" height="27.33" style="fill:#adadad;stroke:#adadad;stroke-linecap:round;stroke-linejoin:round"></rect><rect x="212" y="97.09" width="228.4" height="17.29" style="fill:#fff;stroke:#adadad;stroke-linecap:round;stroke-linejoin:round"></rect><rect x="303.81" y="97.09" width="136.58" height="17.29" style="fill:#fff;stroke:#adadad;stroke-linecap:round;stroke-linejoin:round"></rect><line x1="309.69" y1="97.09" x2="309.69" y2="104.35" style="fill:#fff;stroke:#adadad;stroke-linecap:round;stroke-linejoin:round"></line><line x1="313.42" y1="97.09" x2="313.42" y2="104.35" style="fill:#fff;stroke:#adadad;stroke-linecap:round;stroke-linejoin:round"></line><line x1="313.42" y1="106.31" x2="313.42" y2="111.85" style="fill:#fff;stroke:#adadad;stroke-linecap:round;stroke-linejoin:round"></line><line x1="317.16" y1="97.09" x2="317.16" y2="104.35" style="fill:#fff;stroke:#adadad;stroke-linecap:round;stroke-linejoin:round"></line><line x1="317.16" y1="106.62" x2="317.16" y2="111.76" style="fill:#fff;stroke:#adadad;stroke-linecap:round;stroke-linejoin:round"></line><line x1="320.65" y1="106.62" x2="320.65" y2="109.86" style="fill:#fff;stroke:#adadad;stroke-linecap:round;stroke-linejoin:round"></line><line x1="320.9" y1="97.09" x2="320.9" y2="104.35" style="fill:#fff;stroke:#adadad;stroke-linecap:round;stroke-linejoin:round"></line><line x1="325.13" y1="102.51" x2="325.13" y2="104.35" style="fill:#fff;stroke:#adadad;stroke-linecap:round;stroke-linejoin:round"></line><line x1="325.38" y1="97.09" x2="325.38" y2="101.22" style="fill:#fff;stroke:#adadad;stroke-linecap:round;stroke-linejoin:round"></line><line x1="309.69" y1="105.81" x2="309.69" y2="110.11" style="fill:#fff;stroke:#adadad;stroke-linecap:round;stroke-linejoin:round"></line></g><g id="freepik--Clipboard--inject-2"><rect x="71.05" y="185.26" width="214.59" height="278.84" rx="11.79" style="fill:#263238"></rect><rect x="81.32" y="201.75" width="194.05" height="249.12" style="fill:#fff;stroke:#263238;stroke-linecap:round;stroke-linejoin:round"></rect><line x1="138.94" y1="239.06" x2="217.75" y2="239.06" style="fill:none;stroke:#263238;stroke-linecap:round;stroke-linejoin:round"></line><line x1="228.03" y1="273.01" x2="255.34" y2="273.01" style="fill:none;stroke:#263238;stroke-linecap:round;stroke-linejoin:round"></line><line x1="149.46" y1="273.01" x2="221.53" y2="273.01" style="fill:none;stroke:#263238;stroke-linecap:round;stroke-linejoin:round"></line><line x1="115.87" y1="273.01" x2="144.59" y2="273.01" style="fill:none;stroke:#263238;stroke-linecap:round;stroke-linejoin:round"></line><line x1="101.35" y1="273.01" x2="108.83" y2="273.01" style="fill:none;stroke:#263238;stroke-linecap:round;stroke-linejoin:round"></line><line x1="228.57" y1="299.68" x2="255.34" y2="299.68" style="fill:none;stroke:#263238;stroke-linecap:round;stroke-linejoin:round"></line><line x1="184.14" y1="299.68" x2="223.16" y2="299.68" style="fill:none;stroke:#263238;stroke-linecap:round;stroke-linejoin:round"></line><line x1="117.5" y1="299.68" x2="178.18" y2="299.68" style="fill:none;stroke:#263238;stroke-linecap:round;stroke-linejoin:round"></line><line x1="101.35" y1="299.68" x2="110.45" y2="299.68" style="fill:none;stroke:#263238;stroke-linecap:round;stroke-linejoin:round"></line><line x1="213.4" y1="326.36" x2="255.34" y2="326.36" style="fill:none;stroke:#263238;stroke-linecap:round;stroke-linejoin:round"></line><line x1="123.46" y1="326.36" x2="205.82" y2="326.36" style="fill:none;stroke:#263238;stroke-linecap:round;stroke-linejoin:round"></line><line x1="101.35" y1="326.36" x2="116.95" y2="326.36" style="fill:none;stroke:#263238;stroke-linecap:round;stroke-linejoin:round"></line><line x1="245.37" y1="353.03" x2="255.34" y2="353.03" style="fill:none;stroke:#263238;stroke-linecap:round;stroke-linejoin:round"></line><line x1="129.96" y1="353.03" x2="235.08" y2="353.03" style="fill:none;stroke:#263238;stroke-linecap:round;stroke-linejoin:round"></line><line x1="101.35" y1="353.03" x2="122.37" y2="353.03" style="fill:none;stroke:#263238;stroke-linecap:round;stroke-linejoin:round"></line><line x1="243.75" y1="379.71" x2="255.34" y2="379.71" style="fill:none;stroke:#263238;stroke-linecap:round;stroke-linejoin:round"></line><line x1="153.26" y1="379.71" x2="235.08" y2="379.71" style="fill:none;stroke:#263238;stroke-linecap:round;stroke-linejoin:round"></line><line x1="101.35" y1="379.71" x2="146.21" y2="379.71" style="fill:none;stroke:#263238;stroke-linecap:round;stroke-linejoin:round"></line><line x1="203.11" y1="406.38" x2="255.34" y2="406.38" style="fill:none;stroke:#263238;stroke-linecap:round;stroke-linejoin:round"></line><line x1="101.35" y1="406.38" x2="192.81" y2="406.38" style="fill:none;stroke:#263238;stroke-linecap:round;stroke-linejoin:round"></line><path d="M203.9,179.63a5.24,5.24,0,0,1-4.28-8.19,18.39,18.39,0,1,0-31,.29,5.19,5.19,0,0,1-4.47,7.9h-32l8.64,24.82h86.41l8.64-24.82ZM184,169.06a6.44,6.44,0,1,1,6.43-6.43A6.43,6.43,0,0,1,184,169.06Z" style="fill:#fff;stroke:#263238;stroke-linecap:round;stroke-linejoin:round"></path></g><g id="freepik--check-mark--inject-2"><circle cx="119.99" cy="413.82" r="22.22" transform="translate(-247.04 188.13) rotate(-42.24)" style="fill:#263238;stroke:#263238;stroke-linecap:round;stroke-linejoin:round"></circle><path d="M121.58,423.14a5,5,0,0,1-3.75-1.74L108.08,410a5,5,0,1,1,7.57-6.49l6,7.06,20-22.32a5,5,0,1,1,7.42,6.67l-23.84,26.55a5,5,0,0,1-3.71,1.65Z" style="fill:#FAE92D"></path><path d="M145.46,388.11a3.48,3.48,0,0,1,2.59,5.82l-23.84,26.55a3.47,3.47,0,0,1-2.59,1.16h0a3.45,3.45,0,0,1-2.61-1.22L109.21,409a3.49,3.49,0,1,1,5.3-4.54l7.17,8.36,21.18-23.59a3.47,3.47,0,0,1,2.6-1.16m0-3h0a6.53,6.53,0,0,0-4.83,2.15l-18.9,21.05-4.94-5.76a6.49,6.49,0,1,0-9.85,8.45l9.75,11.38a6.51,6.51,0,0,0,4.85,2.26h.08a6.46,6.46,0,0,0,4.82-2.15l23.85-26.55a6.5,6.5,0,0,0-4.83-10.83Z" style="fill:#263238"></path></g><g id="freepik--Crane--inject-2"><line x1="184.48" y1="156.19" x2="184.48" y2="94.11" style="fill:none;stroke:#263238;stroke-linecap:round;stroke-linejoin:round"></line><path d="M181.64,81.68v5.79l-2.31,4a4.87,4.87,0,0,0,4.88,4.88h0a4.87,4.87,0,0,0,4.87-4.88v-4" style="fill:none;stroke:#263238;stroke-linecap:round;stroke-linejoin:round;stroke-width:3px"></path><rect x="176.62" y="70.56" width="9.76" height="10.84" transform="translate(362.99 151.97) rotate(180)" style="fill:#fff;stroke:#263238;stroke-linecap:round;stroke-linejoin:round"></rect><rect x="173" y="56.02" width="16.98" height="21.77" transform="translate(362.99 133.81) rotate(180)" style="fill:#fff;stroke:#263238;stroke-linecap:round;stroke-linejoin:round"></rect><rect x="167.94" y="66.95" width="26.92" height="6.68" transform="translate(362.81 140.59) rotate(180)" style="fill:#fff;stroke:#263238;stroke-linecap:round;stroke-linejoin:round"></rect><polygon points="181.49 66.95 185.35 66.95 190.8 73.13 190.23 73.64 187.39 73.64 181.49 66.95" style="fill:#263238"></polygon><polygon points="192.75 66.95 194.87 69.34 194.87 73.64 194.8 73.64 188.9 66.95 192.75 66.95" style="fill:#263238"></polygon><polygon points="174.09 66.95 177.94 66.95 183.39 73.13 182.82 73.64 179.98 73.64 174.09 66.95" style="fill:#263238"></polygon><polygon points="167.94 68.39 167.94 66.95 170.53 66.95 175.98 73.13 175.41 73.64 172.57 73.64 167.94 68.39" style="fill:#263238"></polygon><line x1="181.88" y1="55.64" x2="181.88" y2="42.54" style="fill:#fff;stroke:#263238;stroke-linecap:round;stroke-linejoin:round;stroke-width:2px"></line><polyline points="4.47 42.21 188.68 42.21 188.68 34.36 153.07 19.28 4.47 19.28" style="fill:none;stroke:#263238;stroke-linecap:round;stroke-linejoin:round;stroke-width:2px"></polyline><polygon points="153.07 42.21 153.07 19.28 129.54 42.21 129.54 19.28 153.07 42.21" style="fill:none;stroke:#263238;stroke-linecap:round;stroke-linejoin:round;stroke-width:2px"></polygon><polygon points="129.57 42.21 129.57 19.28 106.03 42.21 106.03 19.28 129.57 42.21" style="fill:none;stroke:#263238;stroke-linecap:round;stroke-linejoin:round;stroke-width:2px"></polygon><polygon points="106.06 42.21 106.06 19.28 82.53 42.21 82.53 19.28 106.06 42.21" style="fill:none;stroke:#263238;stroke-linecap:round;stroke-linejoin:round;stroke-width:2px"></polygon><polygon points="82.56 42.21 82.56 19.28 59.02 42.21 59.02 19.28 82.56 42.21" style="fill:none;stroke:#263238;stroke-linecap:round;stroke-linejoin:round;stroke-width:2px"></polygon><polygon points="59.05 42.21 59.05 19.28 35.52 42.21 35.52 19.28 59.05 42.21" style="fill:none;stroke:#263238;stroke-linecap:round;stroke-linejoin:round;stroke-width:2px"></polygon><polygon points="35.55 42.21 35.55 19.28 12.01 42.21 12.01 19.28 35.55 42.21" style="fill:none;stroke:#263238;stroke-linecap:round;stroke-linejoin:round;stroke-width:2px"></polygon></g><g id="freepik--Character--inject-2"><path d="M394.92,275.43,382.54,309.6l-.79-.2-7-5.07-2.59,2.55,2.72,13.37s11,5.66,13,5.29a28.83,28.83,0,0,0,4.38-1.27s6.92-47.56,7.1-48.48S398.38,272.33,394.92,275.43Z" style="fill:#fff;stroke:#263238;stroke-linecap:round;stroke-linejoin:round"></path><path d="M398.26,454s-3.46,5.27-6.28,7.49-9.44,5.42-11.28,6.91-1,2.82-.39,3.46,9.15,1.11,13.78,1.12,13-2,13-2,3.7.59,4.64.12,1.53-1.52,1.68-3.16-.39-10.9-.39-10.9Z" style="fill:#fff;stroke:#263238;stroke-linecap:round;stroke-linejoin:round"></path><path d="M408.2,468.53c-3.6.58-4.31,1.4-11.29,2.44-5.74.86-14.25-.2-17.34-.75a2.24,2.24,0,0,0,.74,1.62c.63.64,9.15,1.11,13.78,1.12s13-2,13-2,3.7.59,4.64.12,1.52-1.51,1.67-3.12A45.33,45.33,0,0,0,408.2,468.53Z" style="fill:#263238;stroke:#263238;stroke-linecap:round;stroke-linejoin:round"></path><path d="M401.27,457.87s-4-1.78-6.7,1.22" style="fill:none;stroke:#263238;stroke-linecap:round;stroke-linejoin:round;stroke-width:2px"></path><path d="M396.71,456.36s3.08,2.41,2.67,5" style="fill:none;stroke:#263238;stroke-linecap:round;stroke-linejoin:round;stroke-width:2px"></path><path d="M398.28,460.65s-3.15-1.46-5.29,1" style="fill:none;stroke:#263238;stroke-linecap:round;stroke-linejoin:round;stroke-width:2px"></path><path d="M394.69,459.42s2.42,2,2.08,4.1" style="fill:none;stroke:#263238;stroke-linecap:round;stroke-linejoin:round;stroke-width:2px"></path><path d="M396,463.47s-2.91-1.37-7.49.25" style="fill:none;stroke:#263238;stroke-linecap:round;stroke-linejoin:round;stroke-width:2px"></path><path d="M392.32,462.22a2.05,2.05,0,0,1-.4,3.2" style="fill:none;stroke:#263238;stroke-linecap:round;stroke-linejoin:round;stroke-width:2px"></path><path d="M421.07,459s-1.71,6.12-2.32,7-4.69,6-4.73,7.79,1.27,3.17,4.52,3.91,8.29,1,12.31-.83,5.83-2.43,6.84-5.23.34-12.19.34-12.19S425.48,450.2,421.07,459Z" style="fill:#fff;stroke:#263238;stroke-linecap:round;stroke-linejoin:round"></path><path d="M437.69,471.61a17.37,17.37,0,0,0,.54-4.65,30.27,30.27,0,0,1-2.82,3.79c-2,2.19-5.38,4.62-11.9,5.1a13,13,0,0,1-9.32-2.86,3,3,0,0,0-.17.77c0,1.83,1.27,3.17,4.52,3.91s8.29,1,12.31-.83S436.68,474.41,437.69,471.61Z" style="fill:#263238;stroke:#263238;stroke-linecap:round;stroke-linejoin:round"></path><path d="M429.9,456.92s-5.48-.27-7.2,3" style="fill:none;stroke:#263238;stroke-linecap:round;stroke-linejoin:round;stroke-width:2px"></path><path d="M423.9,457s4.71,1,5.43,3.24" style="fill:none;stroke:#263238;stroke-linecap:round;stroke-linejoin:round;stroke-width:2px"></path><path d="M428.81,460.92s-5.49-.26-7.21,3" style="fill:none;stroke:#263238;stroke-linecap:round;stroke-linejoin:round;stroke-width:2px"></path><path d="M422.8,461s4.71,1,5.44,3.24" style="fill:none;stroke:#263238;stroke-linecap:round;stroke-linejoin:round;stroke-width:2px"></path><path d="M427.72,464.92s-5.49-.26-7.21,3" style="fill:none;stroke:#263238;stroke-linecap:round;stroke-linejoin:round;stroke-width:2px"></path><path d="M421.71,465s4.71,1,5.43,3.24" style="fill:none;stroke:#263238;stroke-linecap:round;stroke-linejoin:round;stroke-width:2px"></path><path d="M388.26,338.86s2.1,31.81,3,40.74,3.09,29.52,3.27,30.07.73,7.83.73,7.83-.54,2.92.19,9.3,2.91,19.68,2.91,19.68-1.82.36-1.64,1.82.91,5.47.91,5.47,6.93,2.36,8.93,2.55,6,0,6,0,1.64-2.74,1.46-4.19a44.91,44.91,0,0,0-1.46-5.29l.91-10.75L415,392.18s5.65,42.82,6.56,45.91,1.82,8,1.82,8-1.82,1.46-1.82,2.37.37,7.29.37,7.29,3.64-2.92,7.1-2.37,9.12,4.56,9.12,4.56a36.57,36.57,0,0,1,1.09-5.47c.73-2.37-.73-8.38-1.1-10a14.94,14.94,0,0,1-.18-5.65c.37-1.64.55-6.74.73-8.38s-.18-42.46-.18-42.46l3.72-46.75-53-1.64Z" style="fill:#263238;stroke:#263238;stroke-linecap:round;stroke-linejoin:round"></path><path d="M407.68,260.44s-11.26,5.16-12,7-4.54,39.1-6.73,54-1.25,18.86-1.25,18.86,2.35,4.85,25.34,4.06,31.13-4.22,31.44-6.25.63.54.63-.87,1.72-67.88,0-71.95-11.42-10.79-14.24-11.1S407.68,260.44,407.68,260.44Z" style="fill:#FAE92D;stroke:#263238;stroke-linecap:round;stroke-linejoin:round"></path><path d="M426.27,257.4c-6.88,1.69-18.59,5.47-18.59,5.47s-11.26,5.16-12,7a22.42,22.42,0,0,0-.55,3.13c5-2.84,16.69-9.44,20.63-10.68a50.85,50.85,0,0,1,9.85-2L438.62,269l5.46.14s-12.25-10.79-15.71-11.72A7.22,7.22,0,0,0,426.27,257.4Z" style="fill:#fff;stroke:#263238;stroke-linecap:round;stroke-linejoin:round"></path><path d="M388.94,323.69l0,.18c-.38,2.59-.64,4.92-.83,7.05a142.62,142.62,0,0,0,35.1,2.66c12-.73,18.66-1.17,22.05-1.39,0-2.05.09-4.43.14-7.06C437.38,326,406.08,328.71,388.94,323.69Z" style="fill:#fff;stroke:#263238;stroke-linecap:round;stroke-linejoin:round"></path><path d="M397.16,336.16c.08,1.42.2,2.8.35,4.14" style="fill:none;stroke:#263238;stroke-miterlimit:10"></path><path d="M400.58,303.18C399,312.62,396.83,322,397.05,333" style="fill:none;stroke:#263238;stroke-miterlimit:10"></path><path d="M403.46,291.18s-1.17,4.88-2.47,12.11" style="fill:none;stroke:#263238;stroke-miterlimit:10"></path><path d="M368.28,344.61s2.3,4.08,6.39-.46c2.2-2.43,10.47-27.68,10.47-27.68S369,342,368.28,344.61Z" style="fill:#fff;stroke:#263238;stroke-linecap:round;stroke-linejoin:round"></path><path d="M352.84,268.28l10.72-3.71s-.11,23,1.45,28.47l1.55,5.49s-10.42-17.38-12.65-23.18S352.84,268.28,352.84,268.28Z" style="fill:#fff;stroke:#263238;stroke-linecap:round;stroke-linejoin:round"></path><path d="M375,301.63s-1.9-5.25-5.15-4.17-5.64,1-5.89,2.45,8.2,7,8.2,7S378.15,306.53,375,301.63Z" style="fill:#fff;stroke:#263238;stroke-linecap:round;stroke-linejoin:round"></path><path d="M379,326.42s-10.56,17.47-10.7,18.19c0,0-7.24-12.26-17-27.28s-18.94-50.54-18.94-50.54a17.55,17.55,0,0,1,10.42-5.07c6.86-.92,9.22-.65,9.22-.65s6.54,23.13,13.78,33.79a118.52,118.52,0,0,0,16.41,18.9l3,2.71Z" style="fill:#fff;stroke:#263238;stroke-linecap:round;stroke-linejoin:round"></path><path d="M351.08,297.74a188.53,188.53,0,0,0,19.13,5.94" style="fill:none;stroke:#263238;stroke-miterlimit:10"></path><path d="M345.23,295.58s.84.33,2.26.85" style="fill:none;stroke:#263238;stroke-miterlimit:10"></path><path d="M355.68,293.31s6.85,6.87,14,8.23" style="fill:none;stroke:#263238;stroke-miterlimit:10"></path><path d="M390.62,310.94s-8.76-4.07-10.17-4.22-8.6,2.65-9.38,3.28-1.1,2-.16,2.19,2.5-.94,2.5-.94l4.07-.78,1.88,1.09s-6.57,3.91-7.2,5.17-1.72,3.59-1.09,4.06.94,1.57,1.87,1.57a9,9,0,0,0,1.48-.1,6.61,6.61,0,0,0,3.22-1.47c1.4-1.25,4.53-.78,4.53-.78s3.76,1.25,4.7.94a28,28,0,0,0,3.28-1.72h1.72Z" style="fill:#fff;stroke:#263238;stroke-linecap:round;stroke-linejoin:round"></path><path d="M371.07,320.79s3.35-3.49,3.73-3.94,6.06-3.31,6.06-3.31" style="fill:none;stroke:#263238;stroke-miterlimit:10"></path><path d="M372.94,322.36s4.54-4,4.86-4.24,4.14-1.78,4.14-1.78" style="fill:none;stroke:#263238;stroke-miterlimit:10"></path><path d="M442.72,267.87s-6.1-2-10.32,4.54-6.75,38.2-6.75,38.2l-35,.33.62,9.7s33.16,3.58,39.57,3.58,8.14,1.09,8.92-1.25,7.68-30.85,8.62-39.92S445.69,268.5,442.72,267.87Z" style="fill:#fff;stroke:#263238;stroke-linecap:round;stroke-linejoin:round"></path><path d="M391,339.41s-9.66-1.46-10.21-.37,0,16,.91,16.95,7.11,2.19,8.93,1.09,2.92-1.82,3.28-2.73.37-12.39-.36-13.85A2.4,2.4,0,0,0,391,339.41Z" style="fill:#263238;stroke:#263238;stroke-linecap:round;stroke-linejoin:round"></path><path d="M402.47,341.23S401,356,403.38,356.9a25.38,25.38,0,0,0,8.2,1.1c.91-.19,4.19-.73,4.74-2.19s.54-12.94.18-14S403.38,339.77,402.47,341.23Z" style="fill:#263238;stroke:#263238;stroke-linecap:round;stroke-linejoin:round"></path><path d="M425.43,342.87s.73,16.58,1.09,17.31,7.29,5.29,8.56,5.1,11.48-1.27,12-3.28,1.82-18.22.73-20-3.46-2.55-5.65-2.73-14.94,1.64-14.94,1.64A1.94,1.94,0,0,0,425.43,342.87Z" style="fill:#263238;stroke:#263238;stroke-linecap:round;stroke-linejoin:round"></path><path d="M412.38,256.3l-7.51,4.07,2.66,4.85-3.76,23.46S426,259.74,426.3,259.27a36.9,36.9,0,0,1,4.53-2.66l-1.41-5.79-2.34.63Z" style="fill:#263238;stroke:#263238;stroke-linecap:round;stroke-linejoin:round"></path><path d="M404.45,224s-1.35,4.17-1.35,4.73a20,20,0,0,0,.34,2.25s-4.16,5.85-3.94,6.18,2.7,2.93,2.7,2.93.22,8.77,1.35,8.89,8.44.11,8.44.11l-.68,12.82,16.76-9.67.34-11.25s4.5-5.74,4.5-8.66-.45-3.49-.45-3.49Z" style="fill:#fff;stroke:#263238;stroke-linecap:round;stroke-linejoin:round"></path><path d="M432.46,228.83l-17.91-3.09.14,1.29-.68,6.19s4.72-3.26,5.62-3.71,2.7,2.7,1.69,4.61-4.39,4.5-4.39,4.5,3.72,3.82,7.54,4a13.59,13.59,0,0,0,3.9-.32l0-1.37s4.5-5.74,4.5-8.66S432.46,228.83,432.46,228.83Z" style="fill:#263238;stroke:#263238;stroke-linecap:round;stroke-linejoin:round"></path><path d="M404.22,228.38a2.66,2.66,0,0,1,3.38.56" style="fill:none;stroke:#263238;stroke-miterlimit:10"></path><ellipse cx="405.35" cy="231.42" rx="0.56" ry="1.35" style="fill:#263238"></ellipse><polygon points="408.84 248.85 415.7 248.06 411.99 252.45 411.99 249.08 408.84 248.85" style="fill:#263238;stroke:#263238;stroke-miterlimit:10"></polygon><polygon points="422.11 230.52 428.37 242.35 431.33 239.52 425.71 230.18 422.11 230.52" style="fill:#fff;stroke:#263238;stroke-linecap:round;stroke-linejoin:round"></polygon><path d="M402.24,221.3s-7.93,1-6.95,1.36,41.92,12.94,41.92,12.94a26,26,0,0,1-.82-3.93c0-1,1.64-7.37,1-13.92s-14.5-10.21-21.37-10.86-10.32,2.62-11,6.22A42.08,42.08,0,0,1,402.24,221.3Z" style="fill:#FAE92D;stroke:#263238;stroke-linecap:round;stroke-linejoin:round"></path><path d="M413.6,224.73l-7.23-2.6s4.2-9.55,4.05-10.71a20.2,20.2,0,0,1-.14-2.17s.14-1.88,6.51-1.15" style="fill:none;stroke:#263238;stroke-linecap:round;stroke-linejoin:round"></path></g></svg>
