<?xml version="1.0" encoding="UTF-8" standalone="no"?>
<!-- Creator: CorelDRAW 2020 (64 Bit) -->

<svg
   xml:space="preserve"
   width="136.45932mm"
   height="42.587799mm"
   version="1.1"
   style="clip-rule:evenodd;fill-rule:evenodd;image-rendering:optimizeQuality;shape-rendering:geometricPrecision;text-rendering:geometricPrecision"
   viewBox="0 0 13645.932 4258.7799"
   id="svg22"
   sodipodi:docname="logo-lateral-transparente.svg"
   inkscape:version="1.1.1 (3bf5ae0d25, 2021-09-20)"
   xmlns:inkscape="http://www.inkscape.org/namespaces/inkscape"
   xmlns:sodipodi="http://sodipodi.sourceforge.net/DTD/sodipodi-0.dtd"
   xmlns="http://www.w3.org/2000/svg"
   xmlns:svg="http://www.w3.org/2000/svg"><sodipodi:namedview
   id="namedview24"
   pagecolor="#ffffff"
   bordercolor="#666666"
   borderopacity="1.0"
   inkscape:pageshadow="2"
   inkscape:pageopacity="0.0"
   inkscape:pagecheckerboard="0"
   inkscape:document-units="mm"
   showgrid="false"
   inkscape:zoom="2.1413611"
   inkscape:cx="258.01346"
   inkscape:cy="82.891204"
   inkscape:window-width="1920"
   inkscape:window-height="1017"
   inkscape:window-x="-8"
   inkscape:window-y="-8"
   inkscape:window-maximized="1"
   inkscape:current-layer="Camada_x0020_1" />
 <defs
   id="defs4">
  <style
   type="text/css"
   id="style2">
   <![CDATA[
    .str0 {stroke:#FAE92D;stroke-width:75;stroke-miterlimit:22.9256}
    .str1 {stroke:#FAE92D;stroke-width:50;stroke-miterlimit:22.9256}
    .str2 {stroke:#FEFEFE;stroke-width:7.62;stroke-miterlimit:22.9256}
    .fil0 {fill:none}
    .fil1 {fill:#FEFEFE;fill-rule:nonzero}
   ]]>
  </style>
 </defs>
 <g
   id="Camada_x0020_1"
   inkscape:label="Camada 1"
   inkscape:groupmode="layer"
   transform="translate(-678.65825,-807.18)">
  <metadata
   id="CorelCorpID_0Corel-Layer" />
  <polygon
   class="fil0 str0"
   points="2087.17,854.6 2583.26,854.6 2583.26,1294.48 3942.57,1294.48 3942.57,844.68 4458.51,844.68 4458.51,1744.27 4905,1744.27 4905,2260.22 4455.2,2260.22 4455.2,3612.92 4918.23,3612.92 4918.23,4115.63 4451.9,4115.63 4451.9,4572.05 4008.72,4572.05 4008.72,5018.54 2586.57,5018.54 2586.57,4572.05 2146.7,4572.05 2146.7,5028.46 727.86,5028.46 727.86,4062.72 1180.96,4062.72 1180.96,3609.61 724.55,3609.61 724.55,2194.07 1180.96,2194.07 1180.96,1807.11 717.94,1807.11 716.28,1295.31 2087.17,1294.48 "
   id="polygon7" />
  <polyline
   class="fil0 str1"
   points="1177.79,1807.15 1635.85,1807.15 1635.85,1287.9 1635.85,2263.55 2074.07,2263.55 2071.56,1280 2083.59,1808.99 3491.25,1808.8 3491.25,1294.51 2593.32,1294.51 2593.32,1808.8 3049.73,1808.8 3049.73,3158.18 2596.62,3158.18 2596.62,2263.55 2074.07,2263.55 3049.73,2263.55 3049.73,2716.65 4461.95,2716.65 4461.95,2258.59 3491.25,2258.59 3491.25,2716.65 3491.25,1808.8 3491.25,2258.59 3954.28,2258.59 3954.28,1286.24 3954.28,1755.88 4458.64,1755.88 3954.28,1755.88 "
   id="polyline9" />
  <polyline
   class="fil0 str1"
   points="2596.62,2710.87 1185.97,2710.87 1185.97,1807.15 1185.97,2710.87 1626.95,2710.87 1626.95,2263.55 1626.95,2710.87 2145.09,2710.87 2145.09,4067.85 1653.4,4067.85 3044.68,4067.85 3044.68,3611.44 3498.89,3611.44 3498.89,3161.65 3049.73,3161.65 3988.37,3161.65 3988.37,2716.65 3988.37,4100.93 3988.37,3604.83 4444.78,3604.83 3988.37,3604.83 3988.37,4100.93 3496.68,4100.93 3496.68,3611.44 3496.68,4100.93 4438.17,4100.93 4466.83,4100.93 4466.83,4577.18 4006.01,4577.18 3492.28,4577.18 3492.28,4100.93 3492.28,4577.18 3046.89,4577.18 3046.89,4067.85 3046.89,5026.98 2588.27,5026.98 2588.27,4067.85 2588.27,4583.79 1631.36,4583.79 1631.36,4067.85 1668.84,4067.85 1631.36,4067.85 1631.36,3155.03 2145.09,3155.03 727.35,3155.03 1188.17,3155.03 1188.17,2710.87 1188.17,3155.03 1631.36,3155.03 1631.36,3611.44 1168.33,3611.44 1168.33,4581.59 1631.36,4581.59 1168.33,4581.59 1168.33,5026.98 "
   id="polyline11" />
  <line
   class="fil0 str1"
   x1="3044.6799"
   y1="3611.4399"
   x2="2145.0901"
   y2="3611.4399"
   id="line13" />
  <polyline
   class="fil0 str1"
   points="2596.62,3158.18 2596.62,3611.44 2594.89,3611.44 "
   id="polyline15" />
  <path
   class="fil1 str2"
   d="m 7133.08,3214.84 h -211.63 l -117.98,-329.95 h -518.76 l -117.98,329.95 h -206.01 l 466.33,-1258.76 h 239.71 z M 6340.9,2718.97 h 406.39 l -202.26,-587.43 z m 1322.18,514.94 c -77.41,0 -147.64,-19.71 -210.69,-59.12 -63.05,-39.42 -112.68,-96 -148.88,-169.74 -36.21,-73.75 -54.31,-162.12 -54.31,-265.11 0,-106.8 19.35,-197.07 58.05,-270.82 38.71,-73.74 90.51,-130.01 155.44,-168.79 64.93,-38.78 136.09,-58.17 213.49,-58.17 79.92,0 147.34,22.25 202.27,66.76 54.94,44.5 91.77,102.35 110.49,173.55 l -22.47,20.98 v -671.34 h 200.38 v 1382.73 h -177.91 l -14.98,-259.38 26.22,1.91 c -8.74,57.21 -29.34,106.48 -61.81,147.81 -32.46,41.32 -72.72,73.11 -120.79,95.36 -48.06,22.25 -99.56,33.37 -154.5,33.37 z m 43.07,-164.02 c 53.69,0 99.89,-13.98 138.59,-41.96 38.7,-27.97 68.66,-67.38 89.89,-118.24 21.22,-50.86 31.84,-111.89 31.84,-183.1 0,-66.11 -10.62,-123.01 -31.84,-170.69 -21.23,-47.68 -50.87,-84.24 -88.95,-109.67 -38.08,-25.43 -82.09,-38.14 -132.03,-38.14 -83.66,0 -148.58,29.24 -194.77,87.73 -46.2,58.49 -69.3,139.23 -69.3,242.22 0,102.99 22.48,184.04 67.42,243.17 44.95,59.12 108,88.68 189.15,88.68 z m 771.58,144.95 v -953.61 h 177.91 l 9.37,160.21 c 32.46,-61.03 75.85,-106.17 130.16,-135.41 54.31,-29.25 112.06,-43.87 173.23,-43.87 67.42,0 129.53,15.58 186.34,46.73 56.81,31.15 99.56,77.88 128.29,140.18 19.97,-41.96 47.43,-76.92 82.4,-104.9 34.96,-27.97 73.66,-48.63 116.11,-61.98 42.44,-13.35 84.28,-20.03 125.48,-20.03 59.93,0 116.1,12.72 168.54,38.15 52.44,25.43 94.89,64.21 127.36,116.34 32.45,52.13 48.68,118.88 48.68,200.25 v 617.94 h -200.38 v -585.51 c 0,-77.56 -18.11,-133.51 -54.32,-167.84 -36.2,-34.33 -82.4,-51.49 -138.58,-51.49 -43.69,0 -83.96,10.8 -120.8,32.42 -36.82,21.61 -66.47,53.72 -88.95,96.31 -22.48,42.6 -33.71,95.05 -33.71,157.35 v 518.76 h -200.38 v -585.51 c 0,-77.56 -18.11,-133.51 -54.32,-167.84 -36.2,-34.33 -82.4,-51.49 -138.58,-51.49 -37.46,0 -74.91,10.17 -112.37,30.51 -37.45,20.35 -68.67,52.13 -93.64,95.36 -24.97,43.23 -37.45,100.45 -37.45,171.65 v 507.32 z m 1878.39,-1113.81 c -43.69,0 -77.1,-11.13 -100.2,-33.38 -23.09,-22.25 -34.64,-53.72 -34.64,-94.4 0,-40.69 11.55,-71.84 34.64,-93.46 23.1,-21.61 56.51,-32.42 100.2,-32.42 42.45,0 75.22,10.81 98.32,32.42 23.1,21.62 34.65,52.77 34.65,93.46 0,40.68 -11.55,72.15 -34.65,94.4 -23.1,22.25 -55.87,33.38 -98.32,33.38 z m 99.26,160.2 v 953.61 h -200.39 v -953.61 z m 507.52,-429.12 v 1115.72 c 0,47.05 8.11,79.47 24.35,97.27 16.23,17.8 43.07,26.7 80.53,26.7 22.47,0 41.51,-1.59 57.11,-4.77 15.62,-3.18 35.28,-9.22 59,-18.12 l -22.48,152.58 c -21.22,10.17 -45.57,18.12 -73.03,23.84 -27.47,5.72 -54.93,8.58 -82.41,8.58 -83.64,0 -145.13,-21.93 -184.47,-65.8 -39.32,-43.86 -58.98,-111.57 -58.98,-203.11 V 1832.11 Z m 745.37,1401.8 c -93.64,0 -179.17,-18.43 -256.57,-55.31 -77.41,-36.87 -138.59,-89 -183.54,-156.39 l 138.59,-122.06 c 27.47,52.13 67.11,93.77 118.92,124.92 51.81,31.15 113.93,46.73 186.34,46.73 57.43,0 103,-10.17 136.71,-30.52 33.71,-20.34 50.56,-48.95 50.56,-85.82 0,-24.16 -7.79,-45.46 -23.41,-63.89 -15.6,-18.44 -45.25,-32.74 -88.95,-42.91 l -196.64,-41.96 c -99.88,-20.35 -171.05,-53.09 -213.5,-98.22 -42.45,-45.14 -63.67,-102.68 -63.67,-172.61 0,-52.13 14.98,-100.44 44.95,-144.94 29.97,-44.51 73.97,-80.43 132.03,-107.76 58.05,-27.34 127.66,-41.01 208.81,-41.01 93.64,0 173.55,16.85 239.72,50.54 66.16,33.7 116.73,81.7 151.69,144 l -138.58,118.25 c -23.72,-50.86 -58.68,-88.69 -104.88,-113.48 -46.19,-24.8 -94.26,-37.19 -144.2,-37.19 -39.96,0 -74.29,5.08 -103.01,15.25 -28.71,10.18 -50.56,24.16 -65.54,41.96 -14.98,17.8 -22.48,38.78 -22.48,62.94 0,25.43 9.37,47.68 28.1,66.75 18.72,19.07 52.43,33.7 101.13,43.87 l 213.49,45.77 c 89.9,17.8 153.25,48 190.09,90.59 36.83,42.6 55.25,94.41 55.25,155.44 0,61.03 -15.61,114.75 -46.83,161.16 -31.21,46.41 -76.15,82.33 -134.83,107.76 -58.68,25.43 -128.61,38.14 -209.75,38.14 z m 1039.38,-991.75 c 91.15,0 171.68,19.71 241.59,59.13 69.92,39.41 124.54,96.31 163.87,170.69 39.33,74.38 58.99,163.07 58.99,266.06 0,102.99 -19.66,191.67 -58.99,266.05 -39.33,74.38 -93.95,131.28 -163.87,170.7 -69.91,39.41 -150.44,59.12 -241.59,59.12 -91.13,0 -171.66,-19.71 -241.58,-59.12 -69.92,-39.42 -124.85,-96.32 -164.8,-170.7 -39.96,-74.38 -59.93,-163.06 -59.93,-266.05 0,-102.99 19.97,-191.68 59.93,-266.06 39.95,-74.38 94.88,-131.28 164.8,-170.69 69.92,-39.42 150.45,-59.13 241.58,-59.13 z m 0,160.21 c -56.17,0 -103.94,13.03 -143.26,39.1 -39.33,26.06 -69.6,63.89 -90.83,113.48 -21.22,49.58 -31.84,110.61 -31.84,183.09 0,71.2 10.62,131.91 31.84,182.14 21.23,50.22 51.5,88.36 90.83,114.43 39.32,26.06 87.09,39.1 143.26,39.1 56.19,0 103.64,-13.04 142.34,-39.1 38.7,-26.07 68.66,-64.21 89.89,-114.43 21.22,-50.23 31.84,-110.94 31.84,-182.14 0,-72.48 -10.62,-133.51 -31.84,-183.09 -21.23,-49.59 -51.19,-87.42 -89.89,-113.48 -38.7,-26.07 -86.15,-39.1 -142.34,-39.1 z m 717.28,812.47 v -953.61 h 177.91 l 13.11,247.94 -26.22,-26.7 c 17.48,-54.67 42.77,-100.13 75.85,-136.36 33.09,-36.24 72.42,-62.62 117.99,-79.15 45.57,-16.53 93.95,-24.8 145.14,-24.8 66.17,0 125.79,13.04 178.85,39.1 53.05,26.07 95.2,65.16 126.4,117.29 31.22,52.13 46.82,118.25 46.82,198.35 v 617.94 h -200.38 v -555 c 0,-94.09 -19.04,-159.25 -57.12,-195.49 -38.08,-36.23 -85.83,-54.35 -143.27,-54.35 -41.2,0 -81.15,9.85 -119.85,29.56 -38.71,19.71 -70.86,51.18 -96.45,94.41 -25.6,43.23 -38.39,101.08 -38.39,173.55 v 507.32 z"
   id="path17" />
  <path
   class="fil1 str2"
   d="m 6408.3,3784.25 c 45.14,0 81.04,10.58 107.72,31.75 26.66,21.17 40.01,50.16 40.01,86.99 0,36.83 -13.45,65.52 -40.36,86.05 -26.9,20.53 -62.92,30.79 -108.06,30.79 l -3.42,1.91 h -129.27 v 181.61 h -34.2 v -419.1 z m -0.69,207.64 c 36.48,0 64.41,-7.62 83.78,-22.86 19.38,-15.24 29.07,-37.25 29.07,-66.04 0,-28.78 -9.69,-50.9 -29.07,-66.35 -19.37,-15.45 -47.3,-23.18 -83.78,-23.18 h -132.69 v 178.43 z m 26.68,5.72 145.67,205.74 h -40.35 l -134.05,-187.96 z m 362.49,212.09 c -31.46,0 -59.51,-6.56 -84.13,-19.69 -24.62,-13.12 -43.89,-32.06 -57.8,-56.83 -13.9,-24.76 -20.85,-54.29 -20.85,-88.58 0,-34.29 6.95,-63.82 20.85,-88.58 13.91,-24.77 32.72,-43.71 56.43,-56.84 23.71,-13.12 50.84,-19.68 81.4,-19.68 30.99,0 57.45,6.35 79.33,19.05 21.89,12.7 38.76,30.37 50.62,53.02 11.84,22.65 17.78,48.79 17.78,78.42 0,3.81 -0.12,7.52 -0.35,11.12 -0.22,3.6 -0.57,6.88 -1.02,9.84 H 6655.2 v -28.58 h 268.79 l -17.1,4.45 c -0.45,-36.41 -10.82,-65.41 -31.12,-87 -20.29,-21.59 -48.22,-32.38 -83.78,-32.38 -24.63,0 -46.29,5.4 -64.97,16.19 -18.7,10.8 -33.3,26.46 -43.78,46.99 -10.49,20.53 -15.73,45.19 -15.73,73.98 0,28.36 5.35,52.92 16.07,73.66 10.71,20.74 25.76,36.51 45.14,47.31 19.38,10.79 41.83,16.19 67.37,16.19 26.44,0 49.13,-5.29 68.05,-15.88 18.92,-10.58 33.63,-25.18 44.12,-43.81 l 27.36,14.6 c -8.21,15.24 -19.15,28.26 -32.83,39.06 -13.68,10.79 -29.41,19.15 -47.19,25.08 -17.78,5.93 -37.4,8.89 -58.82,8.89 z m 363.17,-473.08 c 12.31,0 23.26,1.49 32.83,4.45 9.58,2.96 17.11,7.2 22.58,12.7 l -9.58,25.4 c -5.93,-5.08 -12.31,-8.68 -19.15,-10.8 -6.84,-2.11 -14.82,-3.17 -23.94,-3.17 -22.34,0 -39.67,5.93 -51.98,17.78 -12.31,11.85 -18.46,29.42 -18.46,52.7 v 50.17 11.43 306.07 h -34.2 v -370.84 c 0,-14.39 2.16,-27.52 6.49,-39.37 4.33,-11.85 10.83,-21.91 19.5,-30.16 8.66,-8.26 19.38,-14.71 32.14,-19.37 12.76,-4.66 27.36,-6.99 43.77,-6.99 z m 52.67,149.23 v 27.3 h -222.97 v -27.3 z m 192.2,-6.35 c 31.91,0 60.07,6.56 84.46,19.68 24.4,13.13 43.55,32.07 57.45,56.84 13.91,24.76 20.87,54.29 20.87,88.58 0,34.29 -6.96,63.82 -20.87,88.58 -13.9,24.77 -33.05,43.71 -57.45,56.83 -24.39,13.13 -52.55,19.69 -84.46,19.69 -31.93,0 -60.08,-6.56 -84.48,-19.69 -24.4,-13.12 -43.55,-32.06 -57.45,-56.83 -13.91,-24.76 -20.85,-54.29 -20.85,-88.58 0,-34.29 6.94,-63.82 20.85,-88.58 13.9,-24.77 33.05,-43.71 57.45,-56.84 24.4,-13.12 52.55,-19.68 84.48,-19.68 z m 0,27.94 c -25.99,-0.42 -48.57,4.87 -67.72,15.87 -19.15,11.01 -34.08,26.78 -44.8,47.31 -10.71,20.53 -16.07,45.19 -16.07,73.98 0,28.36 5.36,52.92 16.07,73.66 10.72,20.74 25.65,36.62 44.8,47.62 19.15,11.01 41.73,16.3 67.72,15.88 25.99,0.42 48.55,-4.87 67.7,-15.88 19.15,-11 33.97,-26.88 44.46,-47.62 10.48,-20.74 15.73,-45.3 15.73,-73.66 0.45,-28.79 -4.68,-53.45 -15.39,-73.98 -10.72,-20.53 -25.65,-36.3 -44.8,-47.31 -19.15,-11 -41.71,-16.29 -67.7,-15.87 z m 260.59,295.91 v -317.5 h 28.72 l 4.11,66.67 c 8.66,-22.43 22.56,-40.21 41.71,-53.34 19.15,-13.12 42.18,-19.68 69.09,-19.68 9.11,0 17.32,0.85 24.62,2.54 7.29,1.69 13.21,4.44 17.78,8.25 l -7.53,27.94 c -5.02,-2.96 -10.49,-5.29 -16.41,-6.98 -5.93,-1.69 -14.82,-2.54 -26.67,-2.54 -17.33,0 -33.75,4.97 -49.25,14.92 -15.51,9.95 -28.04,23.71 -37.62,41.28 -9.57,17.57 -14.36,37.78 -14.36,60.64 v 177.8 z m 258.53,0 v -317.5 h 30.77 l 2.06,66.04 c 10.03,-22.86 26.32,-40.64 48.9,-53.34 22.56,-12.7 47.76,-19.05 75.58,-19.05 29.63,0 55.27,6.56 76.93,19.68 21.66,13.13 36.6,32.39 44.81,57.79 5.93,-16.09 15.5,-29.95 28.73,-41.59 13.21,-11.64 28.72,-20.64 46.51,-26.99 17.78,-6.35 36.24,-9.53 55.39,-9.53 23.71,0 45.26,4.34 64.64,13.02 19.37,8.68 34.87,21.8 46.5,39.37 11.63,17.57 17.44,39.48 17.44,65.72 v 205.74 h -34.19 v -202.56 c 0,-31.33 -9.01,-54.72 -27.02,-70.17 -18.01,-15.45 -41.83,-23.18 -71.47,-23.18 -21.44,0 -41.27,4.77 -59.5,14.29 -18.25,9.53 -32.72,22.86 -43.44,40.01 -10.72,17.14 -16.07,36.93 -16.07,59.37 v 182.88 h -34.2 v -202.57 c 0,-31.32 -9.12,-54.71 -27.36,-70.16 -18.23,-15.45 -41.95,-23.18 -71.13,-23.18 -20.52,0 -39.89,4.66 -58.13,13.97 -18.24,9.31 -33.06,22.65 -44.46,40 -11.4,17.36 -17.09,38.1 -17.09,62.23 v 179.71 z m 865.88,-208.92 c 0,-27.51 -7.98,-48.89 -23.94,-64.13 -15.97,-15.24 -38.76,-22.86 -68.4,-22.86 -25.99,0 -48.33,5.19 -67.03,15.56 -18.69,10.37 -32.6,27.62 -41.71,51.75 l -28.05,-16.51 c 10.03,-24.98 26.79,-44.34 50.27,-58.1 23.48,-13.76 52.55,-20.64 87.21,-20.64 25.08,0 47.07,4.13 65.99,12.38 18.93,8.26 33.63,20.43 44.12,36.51 10.49,16.09 15.74,36.2 15.74,60.33 v 158.75 c 0,22.44 10.94,33.65 32.83,33.65 9.57,0 17.78,-1.48 24.62,-4.44 l -2.06,25.4 c -7.75,3.81 -17.78,5.72 -30.09,5.72 -10.49,0 -20.29,-1.91 -29.41,-5.72 -9.12,-3.81 -16.53,-10.16 -22.23,-19.05 -5.69,-8.89 -8.55,-20.96 -8.55,-36.2 v -17.14 l 9.58,-0.64 c -4.11,18.21 -13.11,33.34 -27.02,45.41 -13.9,12.06 -29.98,20.95 -48.22,26.67 -18.23,5.71 -36.48,8.57 -54.71,8.57 -21.44,0 -40.59,-3.17 -57.46,-9.53 -16.86,-6.35 -30.09,-15.55 -39.67,-27.62 -9.57,-12.06 -14.35,-26.99 -14.35,-44.77 0,-23.7 8.54,-42.86 25.64,-57.46 17.1,-14.61 41.15,-24.66 72.16,-30.17 l 141.58,-26.03 v 26.67 l -124.48,22.86 c -26.9,5.08 -46.97,12.49 -60.19,22.22 -13.22,9.74 -19.84,23.08 -19.84,40.01 0,17.36 7.07,31.01 21.21,40.96 14.13,9.95 34.2,14.92 60.19,14.92 13.21,0 26.67,-1.69 40.35,-5.08 13.68,-3.39 26.33,-8.78 37.95,-16.19 11.64,-7.41 20.87,-16.72 27.71,-27.94 6.84,-11.22 10.26,-24.87 10.26,-40.96 z m 277.68,215.27 c -34.65,0 -65.31,-6.56 -91.99,-19.69 -26.67,-13.12 -45.47,-31.96 -56.42,-56.51 l 29.41,-18.42 c 8.2,21.17 22.91,37.58 44.11,49.22 21.2,11.64 47.08,17.46 77.63,17.46 30.09,0 53.69,-5.5 70.79,-16.51 17.1,-11.01 25.65,-25.61 25.65,-43.82 0,-12.27 -4.22,-22.96 -12.65,-32.06 -8.44,-9.1 -24.28,-15.98 -47.54,-20.64 l -80.02,-15.88 c -32.83,-6.35 -56.21,-16.61 -70.11,-30.79 -13.91,-14.18 -20.85,-31.44 -20.85,-51.76 0,-16.93 5.47,-32.17 16.41,-45.72 10.94,-13.54 26.1,-24.44 45.48,-32.7 19.37,-8.25 42.07,-12.38 68.06,-12.38 34.19,0 62.46,6.24 84.81,18.73 22.34,12.49 38.06,31.22 47.18,56.2 l -28.72,17.14 c -6.84,-22.43 -19.5,-38.73 -37.96,-48.89 -18.47,-10.16 -40.24,-15.24 -65.31,-15.24 -19.15,0 -35.91,2.65 -50.28,7.94 -14.36,5.29 -25.53,12.49 -33.51,21.59 -7.98,9.1 -11.97,19.58 -11.97,31.43 0,12.28 4.56,23.39 13.68,33.34 9.12,9.95 25.3,17.25 48.56,21.9 l 82.07,16.51 c 32.38,6.35 54.94,15.99 67.72,28.9 12.76,12.91 19.15,28.89 19.15,47.94 0,19.05 -5.47,35.56 -16.42,49.53 -10.94,13.97 -26.45,24.66 -46.5,32.07 -20.07,7.41 -43.55,11.11 -70.46,11.11 z m 582.74,0 c -31.46,0 -59.51,-6.56 -84.13,-19.69 -24.62,-13.12 -43.89,-32.06 -57.8,-56.83 -13.9,-24.76 -20.85,-54.29 -20.85,-88.58 0,-34.29 6.95,-63.82 20.85,-88.58 13.91,-24.77 32.72,-43.71 56.43,-56.84 23.71,-13.12 50.84,-19.68 81.4,-19.68 30.99,0 57.45,6.35 79.33,19.05 21.89,12.7 38.76,30.37 50.62,53.02 11.84,22.65 17.78,48.79 17.78,78.42 0,3.81 -0.12,7.52 -0.35,11.12 -0.22,3.6 -0.57,6.88 -1.02,9.84 h -283.84 v -28.58 h 268.79 l -17.1,4.45 c -0.45,-36.41 -10.82,-65.41 -31.12,-87 -20.29,-21.59 -48.22,-32.38 -83.78,-32.38 -24.63,0 -46.29,5.4 -64.97,16.19 -18.7,10.8 -33.3,26.46 -43.78,46.99 -10.49,20.53 -15.73,45.19 -15.73,73.98 0,28.36 5.35,52.92 16.07,73.66 10.72,20.74 25.76,36.51 45.14,47.31 19.38,10.79 41.83,16.19 67.37,16.19 26.44,0 49.13,-5.29 68.05,-15.88 18.93,-10.58 33.63,-25.18 44.12,-43.81 l 27.36,14.6 c -8.21,15.24 -19.15,28.26 -32.83,39.06 -13.68,10.79 -29.41,19.15 -47.19,25.08 -17.78,5.93 -37.4,8.89 -58.82,8.89 z m 822.8,-112.4 c -8.66,23.29 -21.54,43.4 -38.65,60.33 -17.09,16.93 -37.61,29.84 -61.55,38.73 -23.94,8.9 -50.72,13.34 -80.37,13.34 -41.03,0 -76.94,-8.78 -107.72,-26.35 -30.78,-17.57 -54.71,-42.44 -71.82,-74.62 -17.09,-32.17 -25.64,-70.48 -25.64,-114.93 0,-44.45 8.43,-82.76 25.31,-114.94 16.87,-32.17 40.69,-57.04 71.47,-74.61 30.78,-17.57 66.69,-26.35 107.73,-26.35 30.54,0 57.33,3.92 80.36,11.75 23.03,7.83 42.51,19.47 58.47,34.92 15.96,15.45 28.05,34.4 36.26,56.83 l -33.52,14.61 c -10.49,-29.21 -27.13,-51.33 -49.93,-66.36 -22.8,-15.03 -52.66,-22.54 -89.6,-22.54 -33.74,0 -63.49,7.51 -89.26,22.54 -25.76,15.03 -45.82,36.41 -60.18,64.14 -14.36,27.73 -21.55,61.06 -21.55,100.01 0,38.52 7.07,71.75 21.21,99.69 14.13,27.94 33.96,49.43 59.5,64.46 25.54,15.03 55.17,22.54 88.91,22.54 36.49,0 67.48,-8.15 93.02,-24.45 25.54,-16.3 43.32,-39.9 53.35,-70.8 z m 226.39,-217.8 c 31.91,0 60.07,6.56 84.46,19.68 24.4,13.13 43.55,32.07 57.46,56.84 13.9,24.76 20.86,54.29 20.86,88.58 0,34.29 -6.96,63.82 -20.86,88.58 -13.91,24.77 -33.06,43.71 -57.46,56.83 -24.39,13.13 -52.55,19.69 -84.46,19.69 -31.93,0 -60.08,-6.56 -84.48,-19.69 -24.39,-13.12 -43.54,-32.06 -57.45,-56.83 -13.9,-24.76 -20.85,-54.29 -20.85,-88.58 0,-34.29 6.95,-63.82 20.85,-88.58 13.91,-24.77 33.06,-43.71 57.45,-56.84 24.4,-13.12 52.55,-19.68 84.48,-19.68 z m 0,27.94 c -25.99,-0.42 -48.57,4.87 -67.72,15.87 -19.15,11.01 -34.08,26.78 -44.79,47.31 -10.72,20.53 -16.07,45.19 -16.07,73.98 0,28.36 5.35,52.92 16.07,73.66 10.71,20.74 25.64,36.62 44.79,47.62 19.15,11.01 41.73,16.3 67.72,15.88 25.99,0.42 48.55,-4.87 67.71,-15.88 19.15,-11 33.97,-26.88 44.46,-47.62 10.48,-20.74 15.72,-45.3 15.72,-73.66 0.46,-28.79 -4.67,-53.45 -15.39,-73.98 -10.72,-20.53 -25.64,-36.3 -44.79,-47.31 -19.16,-11 -41.72,-16.29 -67.71,-15.87 z m 260.59,295.91 v -317.5 h 30.77 l 2.74,79.37 -5.47,-4.44 c 6.38,-17.36 15.96,-32.07 28.72,-44.13 12.77,-12.07 28.05,-21.28 45.83,-27.63 17.79,-6.35 36.94,-9.52 57.45,-9.52 25.53,0 48.11,4.44 67.71,13.33 19.6,8.89 34.99,22.02 46.16,39.37 11.17,17.36 16.76,39.16 16.76,65.41 v 205.74 h -34.19 v -195.58 c 0,-34.71 -9.23,-60.11 -27.71,-76.2 -18.46,-16.09 -42.51,-24.13 -72.15,-24.13 -21.43,0 -41.38,4.55 -59.84,13.65 -18.48,9.1 -33.52,22.33 -45.14,39.69 -11.64,17.36 -17.44,38.52 -17.44,63.5 v 179.07 z m 524.58,6.35 c -34.65,0 -65.31,-6.56 -91.99,-19.69 -26.67,-13.12 -45.47,-31.96 -56.42,-56.51 l 29.41,-18.42 c 8.2,21.17 22.91,37.58 44.11,49.22 21.2,11.64 47.08,17.46 77.63,17.46 30.09,0 53.69,-5.5 70.79,-16.51 17.1,-11.01 25.65,-25.61 25.65,-43.82 0,-12.27 -4.22,-22.96 -12.65,-32.06 -8.44,-9.1 -24.28,-15.98 -47.54,-20.64 l -80.02,-15.88 c -32.83,-6.35 -56.21,-16.61 -70.11,-30.79 -13.91,-14.18 -20.85,-31.44 -20.85,-51.76 0,-16.93 5.47,-32.17 16.41,-45.72 10.95,-13.54 26.1,-24.44 45.48,-32.7 19.37,-8.25 42.07,-12.38 68.06,-12.38 34.2,0 62.46,6.24 84.81,18.73 22.34,12.49 38.06,31.22 47.18,56.2 l -28.72,17.14 c -6.84,-22.43 -19.5,-38.73 -37.96,-48.89 -18.47,-10.16 -40.24,-15.24 -65.31,-15.24 -19.15,0 -35.91,2.65 -50.28,7.94 -14.36,5.29 -25.53,12.49 -33.51,21.59 -7.98,9.1 -11.97,19.58 -11.97,31.43 0,12.28 4.56,23.39 13.68,33.34 9.12,9.95 25.3,17.25 48.56,21.9 l 82.07,16.51 c 32.38,6.35 54.95,15.99 67.72,28.9 12.76,12.91 19.15,28.89 19.15,47.94 0,19.05 -5.47,35.56 -16.41,49.53 -10.95,13.97 -26.46,24.66 -46.51,32.07 -20.07,7.41 -43.55,11.11 -70.46,11.11 z m 285.9,-412.12 v 321.95 c 0,19.9 5.12,35.03 15.39,45.4 10.25,10.37 25.19,15.56 44.79,15.56 12.77,0 24.05,-2.01 33.86,-6.03 9.8,-4.02 18.58,-9.85 26.33,-17.47 l 13,26.04 c -8.67,8.04 -19.61,14.5 -32.83,19.37 -13.23,4.87 -28.05,7.3 -44.46,7.3 -17.78,0 -33.51,-3.07 -47.19,-9.21 -13.68,-6.14 -24.29,-15.56 -31.8,-28.26 -7.53,-12.7 -11.29,-28.78 -11.29,-48.26 v -317.5 z m 127.9,88.27 v 27.3 h -230.5 v -27.3 z m 73.19,317.5 v -317.5 h 28.72 l 4.11,66.67 c 8.66,-22.43 22.56,-40.21 41.71,-53.34 19.15,-13.12 42.18,-19.68 69.09,-19.68 9.11,0 17.32,0.85 24.62,2.54 7.29,1.69 13.21,4.44 17.78,8.25 l -7.53,27.94 c -5.02,-2.96 -10.49,-5.29 -16.41,-6.98 -5.93,-1.69 -14.82,-2.54 -26.67,-2.54 -17.33,0 -33.75,4.97 -49.24,14.92 -15.52,9.95 -28.05,23.71 -37.63,41.28 -9.57,17.57 -14.36,37.78 -14.36,60.64 v 177.8 z m 378.91,6.35 c -23.72,0 -44.92,-4.02 -63.62,-12.07 -18.7,-8.04 -33.4,-20.63 -44.11,-37.78 -10.72,-17.14 -16.07,-38.63 -16.07,-64.45 v -209.55 h 34.19 v 201.93 c 0,33.02 8.55,56.94 25.65,71.75 17.1,14.82 41.15,22.23 72.16,22.23 18.24,0 34.76,-2.96 49.58,-8.89 14.82,-5.93 27.48,-14.18 37.97,-24.77 10.48,-10.58 18.58,-22.64 24.28,-36.19 5.69,-13.55 8.55,-28.15 8.55,-43.82 v -182.24 h 34.2 v 317.5 h -30.79 l -1.37,-65.41 c -10.02,22.44 -26.44,40.01 -49.24,52.71 -22.8,12.7 -49.92,19.05 -81.38,19.05 z m 422.68,-330.2 c 23.25,0 44,3.39 62.23,10.16 18.24,6.77 33.75,16.51 46.51,29.21 12.76,12.7 22.57,28.15 29.41,46.35 l -32.15,13.97 c -7.29,-22.86 -19.94,-40.53 -37.95,-53.02 -18.01,-12.49 -40.93,-18.73 -68.74,-18.73 -25.08,0 -47.19,5.4 -66.34,16.19 -19.15,10.8 -33.97,26.46 -44.46,46.99 -10.49,20.53 -15.73,45.19 -15.73,73.98 0,28.36 5.24,52.92 15.73,73.66 10.49,20.74 25.07,36.51 43.77,47.31 18.7,10.79 40.81,16.19 66.35,16.19 19.15,0 36.59,-2.96 52.31,-8.89 15.74,-5.93 28.73,-14.61 38.99,-26.04 10.26,-11.43 16.99,-24.97 20.18,-40.64 l 31.46,10.16 c -5.93,19.48 -15.62,36.2 -29.07,50.17 -13.45,13.97 -29.75,24.66 -48.9,32.07 -19.15,7.41 -40.59,11.11 -64.29,11.11 -31.01,0 -58.7,-6.56 -83.1,-19.69 -24.4,-13.12 -43.43,-32.06 -57.11,-56.83 -13.68,-24.76 -20.52,-54.29 -20.52,-88.58 0,-34.29 6.95,-63.82 20.86,-88.58 13.9,-24.77 33.05,-43.71 57.45,-56.84 24.39,-13.12 52.1,-19.68 83.11,-19.68 z m -33.52,321.31 21.88,-8.26 c 25.54,9.32 43.43,20.43 53.7,33.34 10.25,12.91 15.39,27.84 15.39,44.77 0,18.63 -6.73,34.18 -20.19,46.67 -13.45,12.49 -30.66,18.74 -51.63,18.74 -14.13,0 -26.44,-1.91 -36.94,-5.72 -10.49,-3.81 -19.82,-9.31 -28.03,-16.51 l 9.57,-23.49 c 7.75,6.35 15.73,11.32 23.94,14.92 8.2,3.6 17.55,5.4 28.04,5.4 13.68,0 24.85,-4.03 33.51,-12.07 8.66,-8.04 13,-19.26 13,-33.65 0,-12.28 -4.45,-23.18 -13.34,-32.71 -8.89,-9.52 -25.2,-20 -48.9,-31.43 z m 406.27,-321.31 c 31.92,0 60.07,6.56 84.47,19.68 24.4,13.13 43.55,32.07 57.45,56.84 13.91,24.76 20.86,54.29 20.86,88.58 0,34.29 -6.95,63.82 -20.86,88.58 -13.9,24.77 -33.05,43.71 -57.45,56.83 -24.4,13.13 -52.55,19.69 -84.47,19.69 -31.92,0 -60.08,-6.56 -84.47,-19.69 -24.4,-13.12 -43.55,-32.06 -57.45,-56.83 -13.91,-24.76 -20.86,-54.29 -20.86,-88.58 0,-34.29 6.95,-63.82 20.86,-88.58 13.9,-24.77 33.05,-43.71 57.45,-56.84 24.39,-13.12 52.55,-19.68 84.47,-19.68 z m 0,27.94 c -25.99,-0.42 -48.56,4.87 -67.71,15.87 -19.15,11.01 -34.08,26.78 -44.8,47.31 -10.71,20.53 -16.07,45.19 -16.07,73.98 0,28.36 5.36,52.92 16.07,73.66 10.72,20.74 25.65,36.62 44.8,47.62 19.15,11.01 41.72,16.3 67.71,15.88 25.99,0.42 48.56,-4.87 67.71,-15.88 19.15,-11 33.97,-26.88 44.46,-47.62 10.48,-20.74 15.73,-45.3 15.73,-73.66 0.45,-28.79 -4.68,-53.45 -15.39,-73.98 -10.72,-20.53 -25.65,-36.3 -44.8,-47.31 -19.15,-11 -41.72,-16.29 -67.71,-15.87 z m 116.28,-147.96 c -1.83,15.24 -5.59,28.16 -11.29,38.74 -5.7,10.58 -13.11,18.41 -22.23,23.49 -9.13,5.08 -20.3,7.62 -33.51,7.62 -12.31,0 -22.8,-2.22 -31.46,-6.66 -8.67,-4.45 -16.42,-9.42 -23.26,-14.93 -6.84,-5.5 -13.57,-10.47 -20.18,-14.92 -6.61,-4.44 -14.01,-6.67 -22.22,-6.67 -11.86,0 -20.86,3.92 -27.03,11.75 -6.15,7.83 -10.82,18.52 -14.01,32.07 h -27.36 c 2.74,-23.28 9.91,-40.75 21.54,-52.39 11.63,-11.64 27.47,-17.46 47.54,-17.46 11.39,0 21.43,2.22 30.09,6.67 8.66,4.44 16.42,9.42 23.25,14.92 6.84,5.5 13.57,10.48 20.18,14.92 6.61,4.45 14.02,6.67 22.23,6.67 12.31,0 21.43,-3.81 27.36,-11.43 5.92,-7.62 10.26,-18.42 13,-32.39 z m 283.84,450.22 c -31.46,0 -59.51,-6.56 -84.13,-19.69 -24.62,-13.12 -43.89,-32.06 -57.8,-56.83 -13.9,-24.76 -20.85,-54.29 -20.85,-88.58 0,-34.29 6.95,-63.82 20.85,-88.58 13.91,-24.77 32.72,-43.71 56.43,-56.84 23.71,-13.12 50.84,-19.68 81.4,-19.68 31,0 57.45,6.35 79.34,19.05 21.88,12.7 38.75,30.37 50.61,53.02 11.85,22.65 17.78,48.79 17.78,78.42 0,3.81 -0.12,7.52 -0.34,11.12 -0.23,3.6 -0.58,6.88 -1.03,9.84 h -283.84 v -28.58 h 268.8 l -17.11,4.45 c -0.45,-36.41 -10.82,-65.41 -31.12,-87 -20.29,-21.59 -48.22,-32.38 -83.78,-32.38 -24.62,0 -46.28,5.4 -64.97,16.19 -18.7,10.8 -33.29,26.46 -43.77,46.99 -10.5,20.53 -15.74,45.19 -15.74,73.98 0,28.36 5.35,52.92 16.07,73.66 10.72,20.74 25.76,36.51 45.14,47.31 19.38,10.79 41.83,16.19 67.37,16.19 26.44,0 49.13,-5.29 68.05,-15.88 18.93,-10.58 33.63,-25.18 44.12,-43.81 l 27.36,14.6 c -8.21,15.24 -19.15,28.26 -32.83,39.06 -13.68,10.79 -29.41,19.15 -47.19,25.08 -17.78,5.93 -37.4,8.89 -58.82,8.89 z m 357.02,0 c -34.65,0 -65.31,-6.56 -91.99,-19.69 -26.67,-13.12 -45.48,-31.96 -56.42,-56.51 l 29.41,-18.42 c 8.2,21.17 22.9,37.58 44.11,49.22 21.2,11.64 47.08,17.46 77.63,17.46 30.09,0 53.69,-5.5 70.78,-16.51 17.11,-11.01 25.66,-25.61 25.66,-43.82 0,-12.27 -4.22,-22.96 -12.66,-32.06 -8.43,-9.1 -24.27,-15.98 -47.53,-20.64 l -80.02,-15.88 c -32.83,-6.35 -56.21,-16.61 -70.11,-30.79 -13.91,-14.18 -20.85,-31.44 -20.85,-51.76 0,-16.93 5.47,-32.17 16.41,-45.72 10.94,-13.54 26.1,-24.44 45.48,-32.7 19.37,-8.25 42.07,-12.38 68.06,-12.38 34.19,0 62.46,6.24 84.81,18.73 22.33,12.49 38.06,31.22 47.18,56.2 l -28.72,17.14 c -6.84,-22.43 -19.5,-38.73 -37.96,-48.89 -18.47,-10.16 -40.24,-15.24 -65.31,-15.24 -19.15,0 -35.91,2.65 -50.28,7.94 -14.36,5.29 -25.53,12.49 -33.51,21.59 -7.98,9.1 -11.97,19.58 -11.97,31.43 0,12.28 4.56,23.39 13.68,33.34 9.11,9.95 25.3,17.25 48.56,21.9 l 82.07,16.51 c 32.38,6.35 54.94,15.99 67.72,28.9 12.76,12.91 19.15,28.89 19.15,47.94 0,19.05 -5.47,35.56 -16.42,49.53 -10.94,13.97 -26.45,24.66 -46.51,32.07 -20.06,7.41 -43.54,11.11 -70.45,11.11 z"
   id="path19" />
 </g>
</svg>
