<?xml version="1.0" encoding="UTF-8" standalone="no"?>
<!-- Created with Inkscape (http://www.inkscape.org/) -->

<svg
   width="200mm"
   height="200mm"
   viewBox="0 0 200 200"
   version="1.1"
   id="SVGRoot"
   sodipodi:docname="sobre-section-img.svg"
   inkscape:version="1.1.1 (3bf5ae0d25, 2021-09-20)"
   xmlns:inkscape="http://www.inkscape.org/namespaces/inkscape"
   xmlns:sodipodi="http://sodipodi.sourceforge.net/DTD/sodipodi-0.dtd"
   xmlns="http://www.w3.org/2000/svg"
   xmlns:svg="http://www.w3.org/2000/svg">
  <sodipodi:namedview
     id="namedview344"
     pagecolor="#ffffff"
     bordercolor="#666666"
     borderopacity="1.0"
     inkscape:pageshadow="2"
     inkscape:pageopacity="0.0"
     inkscape:pagecheckerboard="0"
     inkscape:document-units="mm"
     showgrid="false"
     inkscape:zoom="0.82142635"
     inkscape:cx="452.2621"
     inkscape:cy="379.21842"
     inkscape:window-width="1600"
     inkscape:window-height="837"
     inkscape:window-x="-8"
     inkscape:window-y="-8"
     inkscape:window-maximized="1"
     inkscape:current-layer="layer1">
    <inkscape:grid
       type="xygrid"
       id="grid413" />
  </sodipodi:namedview>
  <defs
     id="defs339" />
  <g
     inkscape:label="Camada 1"
     inkscape:groupmode="layer"
     id="layer1">
    <rect
       class="fil0 str0"
       x="0.15674549"
       y="0.15674549"
       width="199.68651"
       height="199.68651"
       id="rect7"
       style="clip-rule:evenodd;fill:#000080;fill-rule:evenodd;stroke:#000080;stroke-width:0.313491;stroke-miterlimit:22.9256;image-rendering:optimizeQuality;shape-rendering:geometricPrecision;text-rendering:geometricPrecision" />
    <polygon
       class="fil1 str1"
       points="9608.74,7107.18 9142.41,7107.18 9142.41,7563.6 8699.23,7563.6 8699.23,8010.09 7277.08,8010.09 7277.08,7563.6 6837.21,7563.6 6837.21,8020.01 5418.37,8020.01 5418.37,7054.27 5871.47,7054.27 5871.47,6601.16 5415.06,6601.16 5415.06,5185.62 5871.47,5185.62 5871.47,4798.66 5408.45,4798.66 5406.79,4286.86 6777.68,4286.03 6777.68,3846.15 7273.77,3846.15 7273.77,4286.03 8633.08,4286.03 8633.08,3836.23 9149.02,3836.23 9149.02,4735.82 9595.51,4735.82 9595.51,5251.77 9145.71,5251.77 9145.71,6604.47 9608.74,6604.47 "
       id="polygon9"
       transform="matrix(0.01567457,0,0,0.01567457,-17.745337,-17.037787)"
       style="clip-rule:evenodd;fill:none;fill-rule:evenodd;stroke:#fae92d;stroke-width:75;stroke-miterlimit:22.9256;image-rendering:optimizeQuality;shape-rendering:geometricPrecision;text-rendering:geometricPrecision" />
    <polyline
       class="fil1 str2"
       points="5868.3,4798.7 6326.36,4798.7 6326.36,4279.45 6326.36,5255.1 6764.58,5255.1 6762.07,4271.55 6774.1,4800.54 8181.76,4800.35 8181.76,4286.06 7283.83,4286.06 7283.83,4800.35 7740.24,4800.35 7740.24,6149.73 7287.13,6149.73 7287.13,5255.1 6764.58,5255.1 7740.24,5255.1 7740.24,5708.2 9152.46,5708.2 9152.46,5250.14 8181.76,5250.14 8181.76,5708.2 8181.76,4800.35 8181.76,5250.14 8644.79,5250.14 8644.79,4277.79 8644.79,4747.43 9149.15,4747.43 8644.79,4747.43 "
       id="polyline11"
       transform="matrix(0.01567457,0,0,0.01567457,-17.745337,-17.037787)"
       style="clip-rule:evenodd;fill:none;fill-rule:evenodd;stroke:#fae92d;stroke-width:50;stroke-miterlimit:22.9256;image-rendering:optimizeQuality;shape-rendering:geometricPrecision;text-rendering:geometricPrecision" />
    <polyline
       class="fil1 str2"
       points="7287.13,5702.42 5876.48,5702.42 5876.48,4798.7 5876.48,5702.42 6317.46,5702.42 6317.46,5255.1 6317.46,5702.42 6835.6,5702.42 6835.6,7059.4 6343.91,7059.4 7735.19,7059.4 7735.19,6602.99 8189.4,6602.99 8189.4,6153.2 7740.24,6153.2 8678.88,6153.2 8678.88,5708.2 8678.88,7092.48 8678.88,6596.38 9135.29,6596.38 8678.88,6596.38 8678.88,7092.48 8187.19,7092.48 8187.19,6602.99 8187.19,7092.48 9128.68,7092.48 9157.34,7092.48 9157.34,7568.73 8696.52,7568.73 8182.79,7568.73 8182.79,7092.48 8182.79,7568.73 7737.4,7568.73 7737.4,7059.4 7737.4,8018.53 7278.78,8018.53 7278.78,7059.4 7278.78,7575.34 6321.87,7575.34 6321.87,7059.4 6359.35,7059.4 6321.87,7059.4 6321.87,6146.58 6835.6,6146.58 5417.86,6146.58 5878.68,6146.58 5878.68,5702.42 5878.68,6146.58 6321.87,6146.58 6321.87,6602.99 5858.84,6602.99 5858.84,7573.14 6321.87,7573.14 5858.84,7573.14 5858.84,8018.53 "
       id="polyline13"
       transform="matrix(0.01567457,0,0,0.01567457,-17.745337,-17.037787)"
       style="clip-rule:evenodd;fill:none;fill-rule:evenodd;stroke:#fae92d;stroke-width:50;stroke-miterlimit:22.9256;image-rendering:optimizeQuality;shape-rendering:geometricPrecision;text-rendering:geometricPrecision" />
    <line
       class="fil1 str2"
       x1="103.50043"
       y1="86.461258"
       x2="89.399765"
       y2="86.461258"
       id="line15"
       style="clip-rule:evenodd;fill:none;fill-rule:evenodd;stroke:#fae92d;stroke-width:0.783729;stroke-miterlimit:22.9256;image-rendering:optimizeQuality;shape-rendering:geometricPrecision;text-rendering:geometricPrecision" />
    <polyline
       class="fil1 str2"
       points="7287.13,6149.73 7287.13,6602.99 7285.4,6602.99 "
       id="polyline17"
       transform="matrix(0.01567457,0,0,0.01567457,-17.745337,-17.037787)"
       style="clip-rule:evenodd;fill:none;fill-rule:evenodd;stroke:#fae92d;stroke-width:50;stroke-miterlimit:22.9256;image-rendering:optimizeQuality;shape-rendering:geometricPrecision;text-rendering:geometricPrecision" />
    <path
       class="fil2 str3"
       d="m 52.903401,140.53915 h -3.317209 l -1.849286,-5.17184 h -8.13134 l -1.849286,5.17184 h -3.229118 l 7.309522,-19.73053 h 3.757353 z M 40.48632,132.76659 h 6.369989 l -3.170338,-9.20771 z m 20.724604,8.07146 c -1.213368,0 -2.314194,-0.30895 -3.302475,-0.92667 -0.988282,-0.6179 -1.766211,-1.50476 -2.333629,-2.6606 -0.567577,-1.156 -0.851287,-2.54116 -0.851287,-4.1555 0,-1.67403 0.303303,-3.08898 0.90991,-4.24498 0.606761,-1.15583 1.418704,-2.03785 2.436455,-2.64571 1.017749,-0.60786 2.133152,-0.91178 3.346363,-0.91178 1.252712,0 2.309492,0.34875 3.170495,1.04643 0.861162,0.69752 1.438452,1.60429 1.731882,2.72032 l -0.3522,0.32885 v -10.52297 h 3.14087 v 21.67371 h -2.78867 l -0.2348,-4.06568 0.41098,0.03 c -0.137,0.89675 -0.45989,1.66903 -0.96884,2.31686 -0.508797,0.64768 -1.139856,1.14597 -1.893333,1.49472 -0.75332,0.34876 -1.56056,0.52306 -2.421721,0.52306 z m 0.675105,-2.57094 c 0.841567,0 1.565732,-0.21913 2.172338,-0.6577 0.606606,-0.43842 1.076215,-1.05616 1.408991,-1.85336 0.33261,-0.79721 0.49908,-1.75383 0.49908,-2.87001 0,-1.03625 -0.16647,-1.92814 -0.49908,-2.67549 -0.332776,-0.74737 -0.797369,-1.32044 -1.394257,-1.71904 -0.596888,-0.3986 -1.286725,-0.59783 -2.069514,-0.59783 -1.311334,0 -2.328928,0.45833 -3.052935,1.37514 -0.724166,0.9168 -1.086248,2.18237 -1.086248,3.79669 0,1.61433 0.352365,2.88474 1.056778,3.81159 0.704573,0.92669 1.692854,1.39001 2.964847,1.39001 z m 12.094179,2.27204 v -14.94744 h 2.78867 l 0.14687,2.51124 c 0.5088,-0.95664 1.18892,-1.66417 2.04021,-2.1225 0.85128,-0.45849 1.75649,-0.68764 2.7153,-0.68764 1.05678,0 2.03033,0.2442 2.9208,0.73246 0.89048,0.48828 1.56056,1.22074 2.01089,2.19726 0.31302,-0.65769 0.74345,-1.20568 1.29159,-1.64426 0.54798,-0.43842 1.15459,-0.76225 1.81997,-0.97151 0.66523,-0.20925 1.32106,-0.31395 1.96685,-0.31395 0.93937,0 1.81982,0.19937 2.64179,0.59798 0.82198,0.3986 1.48736,1.00646 1.99631,1.82357 0.50864,0.81712 0.76304,1.8634 0.76304,3.13885 v 9.68594 h -3.14087 v -9.17762 c 0,-1.21572 -0.28386,-2.09271 -0.85144,-2.63083 -0.56742,-0.53811 -1.29159,-0.80708 -2.17218,-0.80708 -0.68483,0 -1.31604,0.16929 -1.89349,0.50817 -0.57714,0.33872 -1.04189,0.84205 -1.39425,1.50962 -0.35237,0.66774 -0.5284,1.48987 -0.5284,2.4664 v 8.13134 h -3.14086 v -9.17762 c 0,-1.21572 -0.28387,-2.09271 -0.85145,-2.63083 -0.56742,-0.53811 -1.29158,-0.80708 -2.17218,-0.80708 -0.58717,0 -1.17418,0.15942 -1.76135,0.47823 -0.58701,0.31899 -1.07637,0.81713 -1.46777,1.49473 -0.39139,0.67761 -0.58701,1.57452 -0.58701,2.69053 v 7.95204 z m 29.442972,-17.4585 c -0.68483,0 -1.20852,-0.17446 -1.5706,-0.52321 -0.36191,-0.34877 -0.54297,-0.84205 -0.54297,-1.47968 0,-0.6378 0.18106,-1.12606 0.54297,-1.46495 0.36208,-0.33873 0.88577,-0.50817 1.5706,-0.50817 0.66538,0 1.17903,0.16944 1.54112,0.50817 0.36208,0.33889 0.54313,0.82715 0.54313,1.46495 0,0.63763 -0.18105,1.13091 -0.54313,1.47968 -0.36209,0.34875 -0.87574,0.52321 -1.54112,0.52321 z m 1.55585,2.51106 v 14.94744 h -3.14102 v -14.94744 z m 7.95517,-6.72627 v 17.48844 c 0,0.73748 0.12707,1.24565 0.38167,1.52465 0.25439,0.27903 0.67509,0.41852 1.26226,0.41852 0.35222,0 0.65067,-0.0249 0.89519,-0.0748 0.24483,-0.0498 0.553,-0.14446 0.9248,-0.28403 l -0.35237,2.39163 c -0.33262,0.15942 -0.71429,0.28402 -1.14471,0.3737 -0.43058,0.0897 -0.86101,0.13446 -1.29175,0.13446 -1.31102,0 -2.27485,-0.34374 -2.89148,-1.0314 -0.61632,-0.68749 -0.92449,-1.74882 -0.92449,-3.18366 v -17.75757 z m 11.68335,21.97261 c -1.46777,0 -2.80842,-0.28887 -4.02163,-0.86695 -1.21337,-0.57792 -2.17234,-1.39505 -2.87691,-2.45135 l 2.17234,-1.91324 c 0.43058,0.81711 1.05192,1.4698 1.86401,1.95807 0.81211,0.48826 1.7858,0.73247 2.9208,0.73247 0.9002,0 1.61448,-0.15941 2.14288,-0.4784 0.52839,-0.31881 0.79251,-0.76726 0.79251,-1.34518 0,-0.37869 -0.12215,-0.71256 -0.36695,-1.00145 -0.24453,-0.28903 -0.70927,-0.51318 -1.39425,-0.67258 l -3.08225,-0.65771 c -1.56558,-0.31898 -2.68114,-0.83217 -3.34652,-1.53955 -0.66538,-0.70756 -0.998,-1.60948 -0.998,-2.7056 0,-0.81711 0.2348,-1.57436 0.70457,-2.27187 0.46977,-0.69767 1.15945,-1.2607 2.06952,-1.68909 0.90991,-0.42855 2.00102,-0.64281 3.273,-0.64281 1.46777,0 2.72033,0.2641 3.75751,0.79218 1.03703,0.52823 1.82969,1.28062 2.37768,2.25714 l -2.17219,1.85352 c -0.3718,-0.79721 -0.91978,-1.39018 -1.64394,-1.77875 -0.72401,-0.38872 -1.47749,-0.58294 -2.26027,-0.58294 -0.62636,0 -1.16446,0.0797 -1.61465,0.23905 -0.45001,0.15957 -0.79251,0.37869 -1.02731,0.65769 -0.2348,0.27901 -0.35237,0.60786 -0.35237,0.98657 0,0.3986 0.14693,0.74735 0.44047,1.04628 0.29343,0.2989 0.82181,0.52823 1.58516,0.68764 l 3.34637,0.71742 c 1.40914,0.27901 2.40213,0.75238 2.97957,1.41997 0.57731,0.66772 0.86603,1.47983 0.86603,2.43644 0,0.95662 -0.24469,1.79865 -0.73404,2.52611 -0.4892,0.72746 -1.19362,1.29049 -2.1134,1.68909 -0.91979,0.3986 -2.01591,0.59783 -3.28774,0.59783 z m 16.29183,-15.54524 c 1.42874,0 2.691,0.30894 3.78681,0.92683 1.09597,0.61774 1.95211,1.50961 2.56859,2.67549 0.61649,1.16588 0.92465,2.55606 0.92465,4.17038 0,1.61433 -0.30816,3.00434 -0.92465,4.1702 -0.61648,1.16588 -1.47262,2.05777 -2.56859,2.67567 -1.09581,0.61772 -2.35807,0.92667 -3.78681,0.92667 -1.42843,0 -2.69071,-0.30895 -3.78666,-0.92667 -1.09597,-0.6179 -1.95697,-1.50979 -2.58317,-2.67567 -0.62636,-1.16586 -0.93939,-2.55587 -0.93939,-4.1702 0,-1.61432 0.31303,-3.0045 0.93939,-4.17038 0.6262,-1.16588 1.4872,-2.05775 2.58317,-2.67549 1.09595,-0.61789 2.35823,-0.92683 3.78666,-0.92683 z m 0,2.51121 c -0.88045,0 -1.62922,0.20425 -2.24554,0.61288 -0.61649,0.40848 -1.09095,1.00145 -1.42372,1.77875 -0.33262,0.77714 -0.49908,1.73377 -0.49908,2.86986 0,1.11604 0.16646,2.06764 0.49908,2.85496 0.33277,0.78718 0.80723,1.385 1.42372,1.79364 0.61632,0.40848 1.36509,0.61288 2.24554,0.61288 0.88075,0 1.62451,-0.2044 2.23111,-0.61288 0.60661,-0.40864 1.07621,-1.00646 1.409,-1.79364 0.33261,-0.78732 0.49907,-1.73892 0.49907,-2.85496 0,-1.13609 -0.16646,-2.09272 -0.49907,-2.86986 -0.33279,-0.7773 -0.80239,-1.37027 -1.409,-1.77875 -0.6066,-0.40863 -1.35036,-0.61288 -2.23111,-0.61288 z m 11.24305,12.73513 v -14.94744 h 2.78866 l 0.2055,3.88636 -0.411,-0.41851 c 0.274,-0.85692 0.6704,-1.56949 1.18893,-2.13738 0.51867,-0.56805 1.13515,-0.98154 1.84944,-1.24065 0.7143,-0.25909 1.47262,-0.38872 2.275,-0.38872 1.03719,0 1.97173,0.2044 2.80342,0.61287 0.83154,0.40863 1.49221,1.02136 1.98126,1.83847 0.48937,0.81712 0.73389,1.85352 0.73389,3.10906 v 9.68594 h -3.14089 v -8.69939 c 0,-1.47483 -0.29843,-2.49618 -0.89531,-3.06423 -0.5969,-0.56788 -1.34537,-0.85191 -2.24572,-0.85191 -0.64578,0 -1.27198,0.1544 -1.8786,0.46334 -0.60675,0.30895 -1.11069,0.80223 -1.5118,1.47985 -0.40128,0.6776 -0.60175,1.58438 -0.60175,2.7203 v 7.95204 z"
       id="path19"
       style="clip-rule:evenodd;fill:#fefefe;fill-rule:nonzero;stroke:#fefefe;stroke-width:0.11944;stroke-miterlimit:22.9256;image-rendering:optimizeQuality;shape-rendering:geometricPrecision;text-rendering:geometricPrecision" />
    <path
       class="fil2 str3"
       d="m 41.542786,149.46439 c 0.707551,0 1.270268,0.16586 1.688465,0.49769 0.417884,0.33183 0.62714,0.78623 0.62714,1.36351 0,0.57731 -0.210824,1.027 -0.632627,1.34882 -0.421644,0.32178 -0.986243,0.48261 -1.693793,0.48261 l -0.0536,0.03 h -2.026253 v 2.84666 h -0.53607 v -6.56921 z m -0.01077,3.25469 c 0.571809,0 1.0096,-0.11938 1.313215,-0.35832 0.303774,-0.23888 0.45566,-0.58388 0.45566,-1.03517 0,-0.45109 -0.151892,-0.79781 -0.45566,-1.03998 -0.303615,-0.24219 -0.741406,-0.36336 -1.313215,-0.36336 h -2.079858 v 2.79683 z m 0.418198,0.0897 2.283314,3.22487 h -0.632469 l -2.101176,-2.94618 z m 5.681875,3.3244 c -0.493123,0 -0.932793,-0.10277 -1.318703,-0.30862 -0.385907,-0.20568 -0.687956,-0.50255 -0.905989,-0.8908 -0.217877,-0.38811 -0.326815,-0.85098 -0.326815,-1.38846 0,-0.53746 0.108938,-1.00034 0.326815,-1.38845 0.218033,-0.38824 0.512873,-0.68512 0.884516,-0.89094 0.371644,-0.20564 0.796895,-0.30849 1.27591,-0.30849 0.485756,0 0.900505,0.0995 1.243463,0.29862 0.343117,0.19906 0.607546,0.47603 0.793448,0.83106 0.185586,0.35503 0.278694,0.76475 0.278694,1.22921 0,0.0597 -0.0018,0.11785 -0.0055,0.17428 -0.0034,0.0565 -0.0089,0.10785 -0.01598,0.15426 h -4.44911 v -0.448 h 4.213168 l -0.268036,0.0697 c -0.0071,-0.5707 -0.169598,-1.02526 -0.487792,-1.36369 -0.318037,-0.33841 -0.755828,-0.50752 -1.313215,-0.50752 -0.386065,0 -0.725577,0.0846 -1.018377,0.25375 -0.293116,0.16931 -0.521963,0.41477 -0.686232,0.73657 -0.164428,0.32179 -0.246562,0.70833 -0.246562,1.15959 0,0.44454 0.08386,0.8295 0.251891,1.1546 0.167874,0.32509 0.403777,0.57229 0.707549,0.74157 0.303774,0.16912 0.655668,0.25375 1.055997,0.25375 0.414435,0 0.770091,-0.0829 1.066654,-0.24891 0.296563,-0.16583 0.527135,-0.39469 0.691561,-0.68669 l 0.428857,0.22883 c -0.128692,0.23891 -0.300168,0.44297 -0.514597,0.61228 -0.214427,0.16912 -0.460989,0.30015 -0.739683,0.39311 -0.278694,0.0929 -0.586227,0.13938 -0.921977,0.13938 z m 5.692534,-7.41531 c 0.192954,0 0.364591,0.0234 0.514596,0.0697 0.150169,0.0465 0.268192,0.11292 0.353932,0.19908 l -0.150169,0.39814 c -0.09295,-0.0797 -0.192954,-0.136 -0.300168,-0.16928 -0.107215,-0.0331 -0.232297,-0.0497 -0.375249,-0.0497 -0.35017,0 -0.621811,0.0929 -0.814765,0.27869 -0.192954,0.18575 -0.289352,0.46114 -0.289352,0.82605 v 0.7864 0.17916 4.79751 h -0.53607 v -5.81275 c 0,-0.22557 0.03386,-0.43139 0.101723,-0.61711 0.06788,-0.18575 0.169756,-0.34343 0.305654,-0.47275 0.135738,-0.12939 0.303772,-0.23057 0.50378,-0.30362 0.200008,-0.0731 0.428857,-0.10954 0.686077,-0.10954 z m 0.82558,2.33911 v 0.4279 h -3.49496 v -0.4279 z m 3.012652,-0.0995 c 0.500176,0 0.941571,0.10292 1.323874,0.30849 0.38246,0.20582 0.682628,0.50269 0.900505,0.89094 0.218032,0.38811 0.327127,0.85098 0.327127,1.38844 0,0.53748 -0.109092,1.00036 -0.327127,1.38847 -0.217877,0.38826 -0.518045,0.68512 -0.900505,0.8908 -0.382303,0.20578 -0.823698,0.30861 -1.323874,0.30861 -0.500489,0 -0.941729,-0.10277 -1.324187,-0.30861 -0.38246,-0.20568 -0.682628,-0.50256 -0.900505,-0.8908 -0.218034,-0.38811 -0.326815,-0.85099 -0.326815,-1.38847 0,-0.53746 0.108784,-1.00033 0.326815,-1.38844 0.217877,-0.38825 0.518045,-0.68512 0.900505,-0.89094 0.382458,-0.20565 0.823698,-0.30849 1.324187,-0.30849 z m 0,0.43797 c -0.407383,-0.006 -0.761313,0.0763 -1.061483,0.24875 -0.300167,0.17259 -0.534189,0.41977 -0.70222,0.74157 -0.167875,0.32178 -0.25189,0.70832 -0.25189,1.15958 0,0.44454 0.08402,0.82951 0.25189,1.1546 0.168031,0.3251 0.402053,0.57402 0.70222,0.74642 0.30017,0.17258 0.6541,0.25551 1.061483,0.24891 0.407382,0.006 0.761,-0.0763 1.061168,-0.24891 0.300168,-0.1724 0.532466,-0.42132 0.696892,-0.74642 0.16427,-0.32507 0.24656,-0.71006 0.24656,-1.1546 0.0071,-0.45126 -0.07335,-0.8378 -0.24123,-1.15958 -0.168033,-0.3218 -0.402054,-0.569 -0.702222,-0.74157 -0.300168,-0.17241 -0.653786,-0.25534 -1.061168,-0.24875 z m 4.084636,4.63826 v -4.97668 h 0.450174 l 0.06443,1.04502 c 0.135739,-0.35157 0.353619,-0.63028 0.653786,-0.83608 0.300168,-0.20565 0.661154,-0.30849 1.082957,-0.30849 0.1428,0 0.271483,0.0138 0.385908,0.0398 0.114262,0.0265 0.20706,0.0697 0.278694,0.12939 l -0.118031,0.43795 c -0.07869,-0.0463 -0.164426,-0.0829 -0.25722,-0.10938 -0.09295,-0.0265 -0.232297,-0.0399 -0.418041,-0.0399 -0.27164,0 -0.529017,0.0779 -0.771973,0.23385 -0.243112,0.15597 -0.439515,0.37166 -0.589677,0.64706 -0.15,0.2754 -0.225087,0.59218 -0.225087,0.95051 v 2.78693 z m 4.052347,0 v -4.97668 h 0.48226 l 0.0323,1.03514 c 0.15722,-0.35832 0.41256,-0.63702 0.76649,-0.83608 0.35362,-0.19906 0.74862,-0.29861 1.18468,-0.29861 0.46444,0 0.86634,0.10292 1.20585,0.30849 0.33951,0.20582 0.57369,0.50769 0.70238,0.90583 0.093,-0.25221 0.24295,-0.46946 0.45033,-0.65191 0.20706,-0.18246 0.45017,-0.3235 0.72902,-0.42306 0.27869,-0.0995 0.56805,-0.14938 0.86822,-0.14938 0.37164,0 0.70943,0.068 1.0132,0.20409 0.30362,0.136 0.54657,0.34171 0.72887,0.61711 0.18229,0.27538 0.27336,0.61881 0.27336,1.03012 v 3.22489 h -0.53591 v -3.17504 c 0,-0.4911 -0.14123,-0.85773 -0.42353,-1.0999 -0.2823,-0.24217 -0.65567,-0.36333 -1.12026,-0.36333 -0.33606,0 -0.64689,0.0748 -0.93264,0.22398 -0.28606,0.14938 -0.51287,0.35832 -0.6809,0.62714 -0.16803,0.26866 -0.25189,0.57886 -0.25189,0.9306 v 2.86657 h -0.53607 v -3.1752 c 0,-0.49093 -0.14295,-0.85756 -0.42886,-1.09973 -0.28574,-0.24216 -0.65755,-0.36333 -1.11493,-0.36333 -0.32164,0 -0.62526,0.0731 -0.91116,0.21897 -0.28591,0.146 -0.5182,0.35503 -0.69689,0.62698 -0.17869,0.27211 -0.26788,0.5972 -0.26788,0.97543 v 2.81688 z m 13.5723,-3.27473 c 0,-0.43123 -0.12508,-0.76635 -0.37525,-1.00521 -0.25032,-0.23888 -0.60755,-0.35832 -1.07214,-0.35832 -0.40738,0 -0.75755,0.0814 -1.05067,0.24387 -0.29296,0.16256 -0.51099,0.43294 -0.65378,0.81117 l -0.43968,-0.25878 c 0.15722,-0.39154 0.41993,-0.695 0.78797,-0.91069 0.36803,-0.21568 0.82369,-0.32354 1.36697,-0.32354 0.39312,0 0.73781,0.0648 1.03437,0.19407 0.29672,0.12954 0.52714,0.32024 0.69156,0.57227 0.16443,0.25221 0.24672,0.56741 0.24672,0.94566 v 2.48832 c 0,0.35175 0.17148,0.52746 0.5146,0.52746 0.15,0 0.27869,-0.0232 0.3859,-0.0695 l -0.0323,0.39814 c -0.12148,0.0597 -0.27869,0.0897 -0.47165,0.0897 -0.16442,0 -0.31804,-0.03 -0.46099,-0.0897 -0.14295,-0.0597 -0.2591,-0.15924 -0.34844,-0.2986 -0.0892,-0.13938 -0.13402,-0.32854 -0.13402,-0.56741 v -0.26867 l 0.15017,-0.0108 c -0.0644,0.28543 -0.20549,0.52258 -0.42352,0.71178 -0.21788,0.18903 -0.46993,0.32837 -0.75583,0.41803 -0.28575,0.0895 -0.57181,0.13431 -0.85756,0.13431 -0.33606,0 -0.63623,-0.0497 -0.90066,-0.14939 -0.26427,-0.0995 -0.47165,-0.24373 -0.62181,-0.43292 -0.15,-0.18905 -0.22493,-0.42306 -0.22493,-0.70175 0,-0.3715 0.13386,-0.67182 0.4019,-0.90066 0.26803,-0.229 0.645,-0.38654 1.13107,-0.47291 l 2.21921,-0.408 v 0.41803 l -1.95117,0.35832 c -0.42165,0.0797 -0.73624,0.19579 -0.94345,0.34829 -0.20722,0.15262 -0.31099,0.36177 -0.31099,0.62714 0,0.27211 0.11082,0.48606 0.33246,0.64203 0.22148,0.15597 0.53607,0.23386 0.94345,0.23386 0.20706,0 0.41804,-0.0265 0.63247,-0.0797 0.21443,-0.0531 0.41271,-0.13754 0.59485,-0.25377 0.18245,-0.11615 0.32713,-0.26207 0.43434,-0.43794 0.10722,-0.17587 0.16082,-0.38983 0.16082,-0.64203 z m 4.35251,3.37425 c -0.54312,0 -1.0237,-0.10277 -1.4419,-0.30861 -0.41804,-0.20568 -0.71272,-0.50099 -0.88436,-0.88579 l 0.46099,-0.28874 c 0.12854,0.33183 0.3591,0.58908 0.69141,0.77151 0.3323,0.18246 0.73795,0.27368 1.21681,0.27368 0.47165,0 0.84157,-0.0862 1.10961,-0.25879 0.26803,-0.17257 0.40205,-0.40143 0.40205,-0.68686 0,-0.19232 -0.0662,-0.35989 -0.19829,-0.50252 -0.13229,-0.14262 -0.38057,-0.25048 -0.74516,-0.32353 l -1.25428,-0.2489 c -0.5146,-0.0995 -0.88107,-0.26036 -1.09895,-0.48263 -0.21803,-0.22227 -0.32681,-0.4928 -0.32681,-0.81131 0,-0.26537 0.0857,-0.50426 0.25722,-0.71665 0.17148,-0.21223 0.4091,-0.38309 0.71288,-0.51255 0.30361,-0.12939 0.65942,-0.19406 1.06681,-0.19406 0.53591,0 0.97903,0.0978 1.32936,0.29358 0.35017,0.19579 0.59657,0.48937 0.73952,0.88092 l -0.45017,0.26867 c -0.10722,-0.35159 -0.30565,-0.60708 -0.59501,-0.76634 -0.28951,-0.15925 -0.63074,-0.23888 -1.0237,-0.23888 -0.30017,0 -0.56288,0.0415 -0.78812,0.12446 -0.22509,0.0829 -0.40017,0.19577 -0.52525,0.33842 -0.12508,0.14261 -0.18763,0.30691 -0.18763,0.49264 0,0.19248 0.0715,0.36663 0.21443,0.52259 0.14295,0.15597 0.39656,0.27038 0.76116,0.34328 l 1.28641,0.25878 c 0.50754,0.0995 0.86116,0.25065 1.06148,0.453 0.20001,0.20235 0.30017,0.45283 0.30017,0.75143 0,0.29862 -0.0857,0.5574 -0.25738,0.77637 -0.17148,0.21897 -0.41459,0.38654 -0.72887,0.50268 -0.31459,0.11615 -0.68262,0.17415 -1.10443,0.17415 z m 9.1342,0 c -0.49312,0 -0.93279,-0.10277 -1.3187,-0.30861 -0.38591,-0.20568 -0.68796,-0.50256 -0.90599,-0.8908 -0.21787,-0.38811 -0.32681,-0.85099 -0.32681,-1.38847 0,-0.53746 0.10894,-1.00033 0.32681,-1.38844 0.21803,-0.38825 0.51287,-0.68512 0.88452,-0.89094 0.37164,-0.20565 0.79689,-0.30849 1.27591,-0.30849 0.48575,0 0.9005,0.0995 1.24346,0.29861 0.34312,0.19906 0.60755,0.47603 0.79345,0.83106 0.18559,0.35503 0.27869,0.76476 0.27869,1.22922 0,0.0597 -0.002,0.11785 -0.006,0.17428 -0.003,0.0565 -0.009,0.10784 -0.016,0.15426 h -4.44907 v -0.448 h 4.21317 l -0.26804,0.0697 c -0.007,-0.57071 -0.1696,-1.02526 -0.48779,-1.36369 -0.31804,-0.33842 -0.75583,-0.50752 -1.31322,-0.50752 -0.38606,0 -0.72557,0.0846 -1.01837,0.25375 -0.29312,0.16931 -0.52197,0.41477 -0.68624,0.73657 -0.16442,0.32178 -0.24656,0.70832 -0.24656,1.15958 0,0.44454 0.0839,0.82951 0.25189,1.1546 0.16803,0.32509 0.40378,0.57229 0.70755,0.74157 0.30378,0.16912 0.65567,0.25376 1.056,0.25376 0.41443,0 0.77009,-0.0829 1.06665,-0.24891 0.29672,-0.16583 0.52714,-0.39469 0.69157,-0.68669 l 0.42885,0.22883 c -0.12869,0.2389 -0.30017,0.44297 -0.51459,0.61227 -0.21443,0.16913 -0.46099,0.30016 -0.73969,0.39311 -0.27869,0.0929 -0.58623,0.13939 -0.92198,0.13939 z m 12.897042,-1.76183 c -0.13569,0.36506 -0.33763,0.68028 -0.60582,0.94565 -0.26787,0.26538 -0.58952,0.46773 -0.96477,0.60707 -0.37526,0.13954 -0.79501,0.20911 -1.25977,0.20911 -0.64312,0 -1.206,-0.13769 -1.68846,-0.41301 -0.48246,-0.2754 -0.857562,-0.66525 -1.125752,-1.16965 -0.26788,-0.50425 -0.4019,-1.10474 -0.4019,-1.80146 0,-0.69676 0.13214,-1.29725 0.39673,-1.80165 0.26443,-0.50424 0.637802,-0.89409 1.120262,-1.16949 0.48246,-0.27538 1.04534,-0.413 1.68862,-0.413 0.4787,0 0.89863,0.0614 1.25961,0.18417 0.36099,0.12277 0.66632,0.30517 0.91649,0.54735 0.25017,0.24216 0.43968,0.5392 0.56836,0.89079 l -0.5254,0.22901 c -0.16443,-0.45787 -0.42526,-0.8046 -0.78265,-1.04018 -0.35737,-0.23559 -0.82541,-0.35331 -1.40443,-0.35331 -0.52886,0 -0.99518,0.11769 -1.39912,0.35331 -0.40377,0.23558 -0.7182,0.57071 -0.94329,1.00537 -0.225092,0.43466 -0.337792,0.95709 -0.337792,1.56763 0,0.60377 0.11082,1.12464 0.332462,1.56258 0.22148,0.43794 0.53231,0.7748 0.93263,1.01039 0.40034,0.23558 0.86477,0.35329 1.39363,0.35329 0.57197,0 1.05773,-0.12769 1.45805,-0.38325 0.40032,-0.25547 0.67903,-0.62541 0.83625,-1.10974 z m 3.54857,-3.41392 c 0.50017,0 0.94157,0.10277 1.32387,0.30847 0.38247,0.20582 0.68263,0.5027 0.90067,0.89096 0.21787,0.38809 0.32696,0.85097 0.32696,1.38844 0,0.53748 -0.10907,1.00036 -0.32696,1.38847 -0.21804,0.38824 -0.5182,0.68512 -0.90067,0.89078 -0.3823,0.2058 -0.8237,0.30863 -1.32387,0.30863 -0.5005,0 -0.94173,-0.10277 -1.32419,-0.30863 -0.38231,-0.20566 -0.68247,-0.50254 -0.90051,-0.89078 -0.21787,-0.38811 -0.32681,-0.85099 -0.32681,-1.38847 0,-0.53747 0.10892,-1.00035 0.32681,-1.38844 0.21804,-0.38825 0.5182,-0.68514 0.90051,-0.89096 0.38246,-0.20564 0.82369,-0.30847 1.32419,-0.30847 z m 0,0.43797 c -0.40739,-0.006 -0.76131,0.0763 -1.06148,0.24874 -0.30017,0.17258 -0.5342,0.41976 -0.70208,0.74158 -0.16803,0.32178 -0.25187,0.70832 -0.25187,1.15958 0,0.44454 0.0838,0.82951 0.25187,1.15459 0.16788,0.32509 0.40191,0.57401 0.70208,0.74643 0.30017,0.17257 0.65409,0.25549 1.06148,0.24891 0.40738,0.006 0.761,-0.0763 1.06132,-0.24891 0.30017,-0.17242 0.53246,-0.42134 0.69689,-0.74643 0.16428,-0.32508 0.2464,-0.71005 0.2464,-1.15459 0.008,-0.45126 -0.0732,-0.8378 -0.24123,-1.15958 -0.16803,-0.32182 -0.40189,-0.569 -0.70206,-0.74158 -0.30032,-0.17242 -0.65394,-0.25533 -1.06132,-0.24874 z m 4.08463,4.63824 v -4.97667 h 0.48231 l 0.0429,1.24409 -0.0857,-0.0695 c 0.1,-0.27209 0.25017,-0.50268 0.45018,-0.69169 0.20015,-0.18922 0.43966,-0.33357 0.71835,-0.43311 0.27887,-0.0995 0.57902,-0.14923 0.90051,-0.14923 0.40017,0 0.75411,0.0695 1.06133,0.20895 0.30723,0.13939 0.54846,0.34516 0.72353,0.61711 0.1751,0.27211 0.26271,0.61382 0.26271,1.02528 v 3.22487 h -0.53591 v -3.06563 c 0,-0.54406 -0.14461,-0.9422 -0.43435,-1.1944 -0.28935,-0.2522 -0.66632,-0.37821 -1.13091,-0.37821 -0.33591,0 -0.64861,0.0712 -0.93797,0.21394 -0.28967,0.14261 -0.52541,0.35003 -0.70755,0.62212 -0.18245,0.27212 -0.27337,0.60378 -0.27337,0.99534 v 2.80684 z m 8.22257,0.0995 c -0.54313,0 -1.02371,-0.10277 -1.44191,-0.30863 -0.41803,-0.20566 -0.71272,-0.50097 -0.88435,-0.88577 l 0.46098,-0.28874 c 0.12862,0.33183 0.35911,0.58906 0.69142,0.77151 0.33229,0.18246 0.73795,0.27368 1.21681,0.27368 0.47165,0 0.84157,-0.0862 1.1096,-0.25879 0.26803,-0.17257 0.40205,-0.40143 0.40205,-0.68686 0,-0.19232 -0.0662,-0.35989 -0.19828,-0.50252 -0.13231,-0.14262 -0.38058,-0.25048 -0.74517,-0.32353 l -1.25428,-0.2489 c -0.5146,-0.0995 -0.88107,-0.26036 -1.09893,-0.48263 -0.21805,-0.22227 -0.32682,-0.4928 -0.32682,-0.81131 0,-0.26537 0.0857,-0.50426 0.25722,-0.71665 0.17163,-0.21223 0.4091,-0.38309 0.71287,-0.51255 0.30362,-0.12939 0.65943,-0.19406 1.06682,-0.19406 0.53606,0 0.97903,0.0978 1.32935,0.29358 0.35017,0.19579 0.59657,0.48937 0.73952,0.88092 l -0.45016,0.26867 c -0.10724,-0.35159 -0.30565,-0.60708 -0.595,-0.76634 -0.28951,-0.15925 -0.63076,-0.23888 -1.02371,-0.23888 -0.30017,0 -0.56288,0.0415 -0.78813,0.12446 -0.22509,0.0829 -0.40016,0.19577 -0.52524,0.33842 -0.12508,0.14261 -0.18763,0.30691 -0.18763,0.49264 0,0.19248 0.0715,0.36663 0.21443,0.52259 0.14292,0.15597 0.39657,0.27038 0.76115,0.34328 l 1.28642,0.25878 c 0.50754,0.0995 0.86131,0.25065 1.06147,0.453 0.20002,0.20235 0.30017,0.45283 0.30017,0.75143 0,0.29862 -0.0857,0.5574 -0.25721,0.77637 -0.17165,0.21897 -0.41476,0.38654 -0.72903,0.50268 -0.31459,0.11615 -0.68263,0.17415 -1.10443,0.17415 z m 4.48137,-6.4598 v 5.04642 c 0,0.31192 0.0803,0.54909 0.24123,0.71163 0.16066,0.16254 0.39483,0.24389 0.70206,0.24389 0.20015,0 0.37697,-0.0315 0.53074,-0.0945 0.15369,-0.0631 0.29123,-0.1544 0.4127,-0.27385 l 0.20377,0.40817 c -0.13584,0.126 -0.30737,0.22728 -0.5146,0.30362 -0.20737,0.0763 -0.43966,0.11446 -0.69687,0.11446 -0.27871,0 -0.52526,-0.0482 -0.7397,-0.14431 -0.21443,-0.0963 -0.38073,-0.24389 -0.49844,-0.44295 -0.118,-0.19908 -0.17697,-0.45113 -0.17697,-0.75647 v -4.97667 z m 2.00477,1.38359 v 0.42792 h -3.61304 v -0.42792 z m 1.14723,4.97667 v -4.97667 h 0.45017 l 0.0645,1.04503 c 0.13569,-0.35159 0.35361,-0.63028 0.65378,-0.8361 0.30017,-0.20564 0.66116,-0.30847 1.08296,-0.30847 0.14276,0 0.27149,0.0138 0.3859,0.0398 0.11431,0.0265 0.20706,0.0695 0.2787,0.12939 l -0.118,0.43794 c -0.0788,-0.0463 -0.16442,-0.0829 -0.25722,-0.10939 -0.0929,-0.0265 -0.23229,-0.0398 -0.41805,-0.0398 -0.27163,0 -0.52901,0.0778 -0.77181,0.23386 -0.24326,0.15597 -0.43966,0.37164 -0.58983,0.64706 -0.15,0.27538 -0.22509,0.59217 -0.22509,0.95049 v 2.78694 z m 5.93924,0.0995 c -0.3718,0 -0.70411,-0.0631 -0.99721,-0.1892 -0.29313,-0.126 -0.52354,-0.32337 -0.6914,-0.59218 -0.16805,-0.26867 -0.2519,-0.60551 -0.2519,-1.01022 v -3.28461 h 0.53591 v 3.16516 c 0,0.51757 0.134,0.89251 0.40205,1.12465 0.26804,0.23231 0.64501,0.34845 1.13107,0.34845 0.28591,0 0.54487,-0.0465 0.77716,-0.13939 0.23229,-0.0929 0.43074,-0.22227 0.59517,-0.38826 0.16426,-0.16585 0.29121,-0.35488 0.38057,-0.56726 0.0892,-0.2124 0.134,-0.44125 0.134,-0.68686 v -2.85654 h 0.53606 v 4.97668 h -0.48262 l -0.0215,-1.02528 c -0.15704,0.35174 -0.41443,0.62714 -0.7718,0.82621 -0.35738,0.19907 -0.78247,0.2986 -1.2756,0.2986 z m 6.62532,-5.17575 c 0.36444,0 0.68968,0.0531 0.97544,0.15926 0.28589,0.10615 0.52901,0.25878 0.72901,0.45785 0.20002,0.19907 0.35379,0.44124 0.461,0.72652 L 142.9711,152.52 c -0.11431,-0.35833 -0.31255,-0.63529 -0.59486,-0.83106 -0.28229,-0.19577 -0.64155,-0.29359 -1.07746,-0.29359 -0.39312,0 -0.73969,0.0846 -1.03985,0.25377 -0.30017,0.16931 -0.53247,0.41475 -0.69689,0.73657 -0.16443,0.32178 -0.24657,0.70832 -0.24657,1.15958 0,0.44454 0.0822,0.82951 0.24657,1.15459 0.16442,0.32509 0.39295,0.57229 0.68608,0.74157 0.29311,0.16912 0.63967,0.25377 1.04,0.25377 0.30017,0 0.57354,-0.0465 0.81994,-0.13939 0.24672,-0.0929 0.45032,-0.22901 0.61115,-0.40817 0.16082,-0.17917 0.26631,-0.3914 0.31631,-0.63701 l 0.49312,0.15924 c -0.0929,0.30536 -0.24483,0.56743 -0.45566,0.7864 -0.21082,0.21897 -0.46632,0.38654 -0.76648,0.50268 -0.30017,0.11615 -0.63623,0.17415 -1.00772,0.17415 -0.48608,0 -0.92009,-0.10276 -1.30255,-0.30863 -0.38247,-0.20566 -0.68076,-0.50253 -0.89519,-0.89078 -0.21443,-0.38811 -0.32163,-0.85099 -0.32163,-1.38846 0,-0.53748 0.10892,-1.00036 0.32697,-1.38845 0.21788,-0.38824 0.51805,-0.68514 0.90049,-0.89095 0.38231,-0.20565 0.81665,-0.30848 1.30272,-0.30848 z m -0.52541,5.0364 0.34295,-0.12939 c 0.40034,0.146 0.68076,0.32023 0.84174,0.52259 0.16066,0.20235 0.24123,0.43638 0.24123,0.70175 0,0.29202 -0.10554,0.53575 -0.31647,0.73152 -0.21082,0.19579 -0.48059,0.29376 -0.80928,0.29376 -0.22148,0 -0.41443,-0.03 -0.57902,-0.0897 -0.16443,-0.0597 -0.31067,-0.146 -0.43935,-0.25879 l 0.15,-0.3682 c 0.12154,0.0995 0.24655,0.17743 0.37525,0.23386 0.12861,0.0565 0.27509,0.0846 0.43952,0.0846 0.21441,0 0.38951,-0.0632 0.52524,-0.1892 0.1357,-0.126 0.20377,-0.30189 0.20377,-0.52745 0,-0.19248 -0.0697,-0.36334 -0.20909,-0.51271 -0.13938,-0.14923 -0.395,-0.31349 -0.76649,-0.49266 z m 6.36811,-5.0364 c 0.50034,0 0.94157,0.10277 1.32403,0.30847 0.38246,0.20582 0.68263,0.5027 0.90051,0.89096 0.21803,0.38809 0.32696,0.85097 0.32696,1.38844 0,0.53748 -0.10892,1.00036 -0.32696,1.38847 -0.21788,0.38824 -0.51805,0.68512 -0.90051,0.89078 -0.38246,0.2058 -0.82369,0.30863 -1.32403,0.30863 -0.50033,0 -0.94173,-0.10277 -1.32403,-0.30863 -0.38247,-0.20566 -0.68263,-0.50254 -0.90051,-0.89078 -0.21803,-0.38811 -0.32697,-0.85099 -0.32697,-1.38847 0,-0.53747 0.10892,-1.00035 0.32697,-1.38844 0.21788,-0.38826 0.51804,-0.68514 0.90051,-0.89096 0.3823,-0.20564 0.8237,-0.30847 1.32403,-0.30847 z m 0,0.43795 c -0.40739,-0.006 -0.76116,0.0763 -1.06133,0.24876 -0.30017,0.17258 -0.53418,0.41976 -0.70221,0.74156 -0.16788,0.3218 -0.25189,0.70834 -0.25189,1.1596 0,0.44454 0.084,0.82951 0.25189,1.15459 0.16803,0.32509 0.40204,0.57401 0.70221,0.74643 0.30017,0.17257 0.65394,0.25549 1.06133,0.24891 0.40738,0.006 0.76115,-0.0763 1.06132,-0.24891 0.30017,-0.17242 0.53248,-0.42134 0.69689,-0.74643 0.16428,-0.32508 0.24657,-0.71005 0.24657,-1.15459 0.008,-0.45126 -0.0734,-0.8378 -0.24123,-1.1596 -0.16803,-0.3218 -0.40206,-0.56898 -0.70223,-0.74156 -0.30017,-0.17242 -0.65394,-0.25534 -1.06132,-0.24876 z m 1.82264,-2.31921 c -0.0286,0.23889 -0.0877,0.4414 -0.17697,0.60724 -0.0894,0.16583 -0.20549,0.28857 -0.34844,0.36819 -0.14308,0.0797 -0.3182,0.11938 -0.52526,0.11938 -0.19296,0 -0.35737,-0.0348 -0.49313,-0.10446 -0.13584,-0.0697 -0.25737,-0.14769 -0.36458,-0.23402 -0.10723,-0.0862 -0.21271,-0.1641 -0.31631,-0.23384 -0.10369,-0.0697 -0.2196,-0.10462 -0.34829,-0.10462 -0.18591,0 -0.32697,0.0614 -0.42369,0.18419 -0.0963,0.12277 -0.16959,0.29029 -0.2196,0.50267 h -0.42885 c 0.0429,-0.3649 0.15534,-0.63873 0.33763,-0.82118 0.18229,-0.18246 0.43057,-0.27369 0.74517,-0.27369 0.17852,0 0.33591,0.0348 0.47165,0.10461 0.13569,0.0695 0.25737,0.1477 0.36443,0.23386 0.10723,0.0862 0.2127,0.16428 0.3163,0.23388 0.1037,0.0697 0.21977,0.10462 0.34845,0.10462 0.19295,0 0.33591,-0.0597 0.42886,-0.17916 0.0928,-0.11938 0.16082,-0.28872 0.20377,-0.5077 z m 4.44906,7.05701 c -0.49312,0 -0.93278,-0.10277 -1.31869,-0.30863 -0.38591,-0.20566 -0.68797,-0.50254 -0.906,-0.89078 -0.21787,-0.38811 -0.32681,-0.85099 -0.32681,-1.38847 0,-0.53747 0.10892,-1.00035 0.32681,-1.38844 0.21803,-0.38825 0.51288,-0.68514 0.88453,-0.89096 0.37164,-0.20564 0.79689,-0.30847 1.2759,-0.30847 0.48591,0 0.90051,0.0995 1.24362,0.29861 0.34297,0.19906 0.6074,0.47603 0.79329,0.83106 0.18575,0.35503 0.27869,0.76476 0.27869,1.2292 0,0.0597 -0.002,0.11785 -0.006,0.1743 -0.003,0.0565 -0.009,0.10784 -0.0162,0.15424 h -4.44907 v -0.44798 h 4.21333 l -0.26819,0.0697 c -0.008,-0.57071 -0.1696,-1.02528 -0.4878,-1.36369 -0.31803,-0.33842 -0.75583,-0.50754 -1.31321,-0.50754 -0.38591,0 -0.72542,0.0846 -1.01839,0.25377 -0.29311,0.16931 -0.5218,0.41475 -0.68606,0.73657 -0.16458,0.32178 -0.24672,0.70832 -0.24672,1.15958 0,0.44454 0.0838,0.82951 0.25189,1.15459 0.16803,0.32509 0.40377,0.57229 0.70755,0.74157 0.30377,0.16912 0.65567,0.25377 1.05599,0.25377 0.41444,0 0.77009,-0.0829 1.06666,-0.24891 0.29672,-0.16583 0.52714,-0.39469 0.69155,-0.68671 l 0.42887,0.22885 c -0.12877,0.23889 -0.30017,0.44297 -0.5146,0.61226 -0.21444,0.16912 -0.46099,0.30015 -0.73968,0.39312 -0.27869,0.0929 -0.58623,0.13939 -0.92199,0.13939 z m 5.59614,0 c -0.54312,0 -1.0237,-0.10277 -1.4419,-0.30863 -0.41804,-0.20566 -0.71288,-0.50097 -0.88436,-0.88577 l 0.46099,-0.28874 c 0.12861,0.33183 0.35895,0.58906 0.69141,0.77151 0.33229,0.18246 0.73796,0.27368 1.21682,0.27368 0.47164,0 0.84157,-0.0862 1.10944,-0.25879 0.26819,-0.17257 0.4022,-0.40143 0.4022,-0.68686 0,-0.19232 -0.0662,-0.35989 -0.19843,-0.50252 -0.13215,-0.14262 -0.38043,-0.25048 -0.74501,-0.32353 l -1.25428,-0.2489 c -0.5146,-0.0995 -0.88108,-0.26036 -1.09895,-0.48263 -0.21803,-0.22227 -0.32682,-0.4928 -0.32682,-0.81131 0,-0.26537 0.0857,-0.50426 0.25723,-0.71665 0.17148,-0.21223 0.40911,-0.38309 0.71288,-0.51255 0.30361,-0.12939 0.65943,-0.19406 1.06681,-0.19406 0.53591,0 0.97903,0.0978 1.32936,0.29358 0.35001,0.19579 0.59657,0.48937 0.73952,0.88092 l -0.45017,0.26867 c -0.10723,-0.35159 -0.30566,-0.60708 -0.595,-0.76634 -0.28952,-0.15925 -0.63075,-0.23888 -1.02371,-0.23888 -0.30017,0 -0.56287,0.0415 -0.78812,0.12446 -0.22509,0.0829 -0.40017,0.19577 -0.52526,0.33842 -0.12508,0.14261 -0.18762,0.30691 -0.18762,0.49264 0,0.19248 0.0715,0.36663 0.21443,0.52259 0.14277,0.15597 0.39656,0.27038 0.76116,0.34328 l 1.28641,0.25878 c 0.50754,0.0995 0.86116,0.25065 1.06148,0.453 0.2,0.20235 0.30017,0.45283 0.30017,0.75143 0,0.29862 -0.0857,0.5574 -0.25738,0.77637 -0.17148,0.21897 -0.41459,0.38654 -0.72902,0.50268 -0.31443,0.11615 -0.68248,0.17415 -1.10428,0.17415 z"
       id="path21"
       style="clip-rule:evenodd;fill:#fefefe;fill-rule:nonzero;stroke:#fefefe;stroke-width:0.11944;stroke-miterlimit:22.9256;image-rendering:optimizeQuality;shape-rendering:geometricPrecision;text-rendering:geometricPrecision" />
  </g>
</svg>
